<svg xmlns="http://www.w3.org/2000/svg" width="95.353" height="26.04" viewBox="0 0 95.353 26.04">
  <g id="airtel" transform="translate(-86.914 -1005)">
    <path id="bharti-airtel-limited" d="M63.732,474.715c-.028.018-.452.1-.959.184s-1.337.212-1.844.3l-.922.157v8.483c0,9.211-.018,8.824.526,9.976a3.358,3.358,0,0,0,.839,1.1c.977.894,1.89,1.171,3.836,1.18,1.66,0,1.6.065,1.558-1.466l-.028-1.106-.71-.065c-1.263-.111-1.872-.618-2.01-1.669-.037-.314-.065-4.26-.055-8.759C63.972,475.24,63.954,474.493,63.732,474.715ZM38.2,474.9a12.025,12.025,0,0,0-2.812.535c-.065.074-.074,3.015-.046,8.639.046,7.856.065,8.566.212,8.944a3.984,3.984,0,0,0,1.005,1.678c.968.968,2.2,1.365,4.232,1.365,1.125,0,1.282-.018,1.355-.166a8.962,8.962,0,0,0,.065-2.148c-.055-.23-.092-.24-.784-.3a1.911,1.911,0,0,1-1.752-.987l-.231-.415-.028-4.776a36.439,36.439,0,0,1,.083-4.914c.083-.1.4-.129,1.383-.129,1.521,0,1.392.147,1.355-1.614l-.028-1.2-1.291-.046a8.953,8.953,0,0,1-1.4-.12,7.218,7.218,0,0,1-.12-2.287v-2.2l-.2.009c-.12.009-.562.065-1,.129ZM6.253,479.057a14.753,14.753,0,0,0-2.858.682,3.6,3.6,0,0,1-.415.148,7.626,7.626,0,0,0-1.752.876,3.015,3.015,0,0,0,.175.479,12.112,12.112,0,0,0,.885,1.816.838.838,0,0,0,.212-.083,9.985,9.985,0,0,1,1.494-.609c.277-.083.609-.194.738-.24a7.334,7.334,0,0,1,2.526-.175c1.254.2,1.715.784,1.789,2.268.037.821.037.839-.175.894a16.6,16.6,0,0,1-1.881.065A7.769,7.769,0,0,0,2.7,486,5,5,0,0,0,.15,489.144,6.26,6.26,0,0,0,.2,492.095a5.812,5.812,0,0,0,5.551,4.121,10.214,10.214,0,0,0,6.722-1.936l.6-.489.028-4.878c.028-5.652.018-5.846-.664-7.229a5.246,5.246,0,0,0-1.964-1.9c-.3-.138-.618-.277-.719-.323A9.351,9.351,0,0,0,6.253,479.057Zm2.72,8.888a17.661,17.661,0,0,1,.092,2.5c0,2.619.037,2.453-.645,2.812a3.114,3.114,0,0,1-1.438.175H5.866l-.461-.313a2.753,2.753,0,0,1-.645-.6,3.429,3.429,0,0,1,.083-3.651,3.787,3.787,0,0,1,1.171-.83.423.423,0,0,0,.249-.083c.129-.138.553-.175,1.632-.157C8.669,487.807,8.909,487.835,8.973,487.946Zm20.285-8.667a10.233,10.233,0,0,0-4.776,2.563l-.387.35V495.81c0,.148.138.157,2.01.138l2-.028.028-6.427.018-6.417.35-.277a3.087,3.087,0,0,1,1.153-.618,6.309,6.309,0,0,1,2.379-.23,3.419,3.419,0,0,0,.774.028,2.043,2.043,0,0,0,.378-.7c.138-.369.36-.848.47-1.07.3-.581.277-.728-.129-.821-.194-.046-.544-.129-.793-.184a11.371,11.371,0,0,0-3.476.074Zm20.054.018a1.962,1.962,0,0,0-.636.175.385.385,0,0,1-.221.083,3.156,3.156,0,0,0-.728.295,6.986,6.986,0,0,0-2.259,2.1,9.43,9.43,0,0,0-.95,1.982,3.483,3.483,0,0,1-.138.461c-.037.1-.148.5-.24.876a17.956,17.956,0,0,0-.009,5.117,9.211,9.211,0,0,0,.811,2.167.094.094,0,0,1,.083.1,6.844,6.844,0,0,0,1.872,2.37,6.632,6.632,0,0,0,1.678.867,11.137,11.137,0,0,0,2.591.443,11.592,11.592,0,0,0,4.453-1.06,3.115,3.115,0,0,1,.562-.277,2.9,2.9,0,0,0,.959-.59,8.033,8.033,0,0,0-1.088-2.222.874.874,0,0,0-.36.184.825.825,0,0,1-.36.184.677.677,0,0,0-.3.129,8.793,8.793,0,0,1-1.06.424,4.85,4.85,0,0,1-2.167.313c-1.143,0-1.337-.018-1.706-.194-1.291-.618-2.028-2.176-2.028-4.278a6.017,6.017,0,0,1,.028-.839c.009-.018,2.056-.046,4.536-.074l4.518-.046-.028-.922a13.048,13.048,0,0,0-.95-4.795c-.037-.055-.166-.286-.286-.516a4.856,4.856,0,0,0-2.794-2.25,9.223,9.223,0,0,0-3.78-.212Zm1.982,2.932c.387.1,1.2.756,1.2.959a1.224,1.224,0,0,0,.138.36,3.943,3.943,0,0,1,.23,1.955c-.092.12-.452.138-2.314.138h-2.2l-.055-.23a3.825,3.825,0,0,1,.572-2.222,2.343,2.343,0,0,1,1.3-.977,2.308,2.308,0,0,1,.645-.12C50.861,482.109,51.082,482.174,51.294,482.229Zm-33.746-9.423a2.572,2.572,0,0,0-1.217.987c-.3.452-.3.489-.3,1.429v.977l.35.479a2.3,2.3,0,0,0,1.3.977,2.572,2.572,0,0,0,2.351-.35,2.743,2.743,0,0,0,.728-3.411,2.14,2.14,0,0,0-.95-.959A3.007,3.007,0,0,0,17.548,472.806Zm2.259,6.657a7.22,7.22,0,0,1-.922.175c-.35.046-1,.138-1.429.2a4.893,4.893,0,0,0-.857.166c-.083.074-.092,15.739-.018,15.877a11.6,11.6,0,0,0,1.936.083c1.881,0,1.89,0,1.936-.212.028-.111.037-3.836.028-8.271-.028-7.994-.028-8.068-.212-8.086A1.525,1.525,0,0,0,19.807,479.463Z" transform="translate(115.488 533.496)" fill="red"/>
    <path id="bharti-airtel-limited-2" data-name="bharti-airtel-limited" d="M194.861.042a2.784,2.784,0,0,1-.507.063,16.909,16.909,0,0,0-3.9.979c-.076.035-.292.125-.486.2a18.764,18.764,0,0,0-2.056.986,1.3,1.3,0,0,1-.361.167c-.1.028-.188.076-.188.1s-.056.069-.118.1a1.833,1.833,0,0,0-.333.181,2.982,2.982,0,0,1-.368.208,2.012,2.012,0,0,0-.389.243,1.208,1.208,0,0,1-.271.174,24.851,24.851,0,0,0-3.028,2.195A12.834,12.834,0,0,0,181.388,7.2a.692.692,0,0,1-.146.208A12.563,12.563,0,0,0,180.228,9c-.076.174-.229.479-.326.688a4.731,4.731,0,0,0-.444,2.333,2.491,2.491,0,0,0,.826,1.917,3.191,3.191,0,0,0,2.32.944,5.486,5.486,0,0,0,1.945-.222c.229-.063.535-.139.681-.181a1.7,1.7,0,0,0,.382-.132c.16-.083,1.056-.486,1.1-.486a27.294,27.294,0,0,0,2.945-1.8c.9-.6,1.681-1.118,1.75-1.153s.486-.292.938-.563,1.007-.583,1.236-.7.556-.292.729-.382.5-.236.729-.319.514-.208.625-.257.285-.125.382-.167a5.87,5.87,0,0,1,1.479-.264,2.454,2.454,0,0,1,2.66,1.681,3.476,3.476,0,0,1,.132,1.354,5.2,5.2,0,0,1-.361,2.222c-.056.132-.132.319-.174.417a15.954,15.954,0,0,1-1.882,3.111,26.8,26.8,0,0,1-3.556,3.681c-.382.319-.806.667-.938.778a11.888,11.888,0,0,1-1.007.736c-.153.1-.4.264-.556.375a18.6,18.6,0,0,1-2.222,1.181c-.188.083-.444.194-.569.25a1.052,1.052,0,0,1-.354.1,1.488,1.488,0,0,0-.354.076.664.664,0,0,1-.91-.611c0-.569.271-.931,1.979-2.625,1.847-1.833,2.049-2.1,2.049-2.8a1.683,1.683,0,0,0-1.1-1.59,1.731,1.731,0,0,0-1.042-.194,2.66,2.66,0,0,0-1.57.4c-.111.069-.285.16-.382.208a1.2,1.2,0,0,0-.208.125c-.021.021-.16.125-.312.243a9.283,9.283,0,0,0-1.382,1.417,9.671,9.671,0,0,0-.882,1.465,7.089,7.089,0,0,0-.688,2.681,2.964,2.964,0,0,0,1.979,3.028,9.064,9.064,0,0,0,2.34.007,13.211,13.211,0,0,0,1.889-.583.289.289,0,0,1,.167-.063,21.285,21.285,0,0,0,2.952-1.507c.16-.1.34-.222.41-.264s.389-.236.729-.444.625-.4.646-.424a6.027,6.027,0,0,1,.521-.382l.694-.479c.118-.083.444-.333.729-.563a27.737,27.737,0,0,0,4.334-4.167c.153-.188.292-.361.313-.382.056-.042.528-.722.854-1.236a9.03,9.03,0,0,0,.493-.847c.132-.25.313-.59.4-.764s.285-.625.438-1.007.292-.757.319-.833a15.988,15.988,0,0,0,.625-2.674,10.287,10.287,0,0,0-.25-3.646,5.96,5.96,0,0,0-.4-1.007A7.6,7.6,0,0,0,201.6,1.709a3.639,3.639,0,0,1-.389-.306A9.758,9.758,0,0,0,198.952.4,11.413,11.413,0,0,0,197.639.1a14.973,14.973,0,0,0-2.778-.063Z" transform="translate(-92.538 1005)" fill="red"/>
  </g>
</svg>
