<svg xmlns="http://www.w3.org/2000/svg" xmlns:xlink="http://www.w3.org/1999/xlink" width="158.092" height="23.096" viewBox="0 0 158.092 23.096">
  <defs>
    <clipPath id="clip-path">
      <path id="path20" d="M251.743-114.564q-3.1,0-3.1,2.391,0,2.081,2.191,2.081a5.634,5.634,0,0,0,1.814-.332,9.008,9.008,0,0,0,1.97-.974v-2.767a11.231,11.231,0,0,0-2.877-.4m.31-6.088q3.828,0,3.828,3.3v7.837a.293.293,0,0,1-.332.332h-.465a.316.316,0,0,1-.354-.332l-.088-.952a6.285,6.285,0,0,1-3.983,1.528,3.319,3.319,0,0,1-2.423-.875,3.113,3.113,0,0,1-.9-2.336,3.163,3.163,0,0,1,1.1-2.546,4.521,4.521,0,0,1,3.021-.93,10,10,0,0,1,1.549.132,11.2,11.2,0,0,1,1.615.377v-1.86a2.523,2.523,0,0,0-.642-1.937,3.114,3.114,0,0,0-2.124-.587,10.414,10.414,0,0,0-2.9.443q-.244.067-.387.122a.689.689,0,0,1-.232.055q-.266,0-.266-.288v-.354a.43.43,0,0,1,.288-.443,9.631,9.631,0,0,1,1.8-.509,10.437,10.437,0,0,1,1.892-.177" transform="translate(-247.339 120.653)"/>
    </clipPath>
    <clipPath id="clip-path-2">
      <path id="path32" d="M346.488-120.653a3.027,3.027,0,0,1,2.323.853,3.556,3.556,0,0,1,.8,2.513v7.771a.294.294,0,0,1-.332.332h-.6a.293.293,0,0,1-.332-.332v-7.239a3.472,3.472,0,0,0-.5-2.1,1.931,1.931,0,0,0-1.626-.642,6.607,6.607,0,0,0-4.005,1.395,8.39,8.39,0,0,1,.066,1.04v7.549a.294.294,0,0,1-.332.332h-.6a.294.294,0,0,1-.332-.332v-7.239a3.475,3.475,0,0,0-.5-2.1,1.932,1.932,0,0,0-1.626-.642,6.656,6.656,0,0,0-3.939,1.351v8.634a.294.294,0,0,1-.332.332h-.6a.293.293,0,0,1-.332-.332v-10.472a.293.293,0,0,1,.332-.332h.443a.341.341,0,0,1,.376.332l.089.886a8.719,8.719,0,0,1,2.08-1.14,6.044,6.044,0,0,1,2.146-.41,2.729,2.729,0,0,1,2.788,1.7,8.164,8.164,0,0,1,2.224-1.273,6.6,6.6,0,0,1,2.313-.432" transform="translate(-333.698 120.653)"/>
    </clipPath>
    <clipPath id="clip-path-3">
      <path id="path44" d="M474.443-114.564q-3.1,0-3.1,2.391,0,2.081,2.191,2.081a5.633,5.633,0,0,0,1.814-.332,9.01,9.01,0,0,0,1.97-.974v-2.767a11.234,11.234,0,0,0-2.877-.4m.31-6.088q3.828,0,3.828,3.3v7.837a.293.293,0,0,1-.332.332h-.465a.316.316,0,0,1-.354-.332l-.088-.952a6.285,6.285,0,0,1-3.983,1.528,3.319,3.319,0,0,1-2.423-.875,3.112,3.112,0,0,1-.9-2.336,3.163,3.163,0,0,1,1.1-2.546,4.521,4.521,0,0,1,3.021-.93,10,10,0,0,1,1.549.132,11.2,11.2,0,0,1,1.616.377v-1.86a2.522,2.522,0,0,0-.642-1.937,3.113,3.113,0,0,0-2.124-.587,10.414,10.414,0,0,0-2.9.443q-.244.067-.387.122a.69.69,0,0,1-.233.055q-.266,0-.266-.288v-.354a.43.43,0,0,1,.288-.443,9.637,9.637,0,0,1,1.8-.509,10.435,10.435,0,0,1,1.892-.177" transform="translate(-470.039 120.653)"/>
    </clipPath>
    <clipPath id="clip-path-4">
      <path id="path56" d="M558.538-107.8v.443a.293.293,0,0,1-.332.332h-7.789a.293.293,0,0,1-.332-.332v-.465a.94.94,0,0,1,.056-.354,1.182,1.182,0,0,1,.21-.31l6.727-8.568h-6.439a.294.294,0,0,1-.332-.332v-.443a.294.294,0,0,1,.332-.332h7.524a.294.294,0,0,1,.332.332v.465a.992.992,0,0,1-.055.332,1.149,1.149,0,0,1-.232.354l-6.749,8.546h6.749a.293.293,0,0,1,.332.332" transform="translate(-550.085 118.161)"/>
    </clipPath>
    <clipPath id="clip-path-5">
      <path id="path68" d="M628.955-110q3.828,0,3.828-4.76,0-4.738-3.828-4.738t-3.828,4.738q0,4.76,3.828,4.76m0,1.151a4.774,4.774,0,0,1-3.773-1.539,6.387,6.387,0,0,1-1.361-4.372,6.344,6.344,0,0,1,1.361-4.361,4.791,4.791,0,0,1,3.773-1.528,4.792,4.792,0,0,1,3.773,1.528,6.344,6.344,0,0,1,1.361,4.361,6.387,6.387,0,0,1-1.361,4.372,4.774,4.774,0,0,1-3.773,1.539" transform="translate(-623.821 120.653)"/>
    </clipPath>
    <clipPath id="clip-path-6">
      <path id="path80" d="M724.987-120.653a3.336,3.336,0,0,1,2.479.853,3.436,3.436,0,0,1,.84,2.513v7.771a.293.293,0,0,1-.331.332h-.6a.293.293,0,0,1-.332-.332v-7.239a3.209,3.209,0,0,0-.554-2.1,2.217,2.217,0,0,0-1.77-.642,6.831,6.831,0,0,0-2.235.365,8.907,8.907,0,0,0-2.08,1.052v8.568a.294.294,0,0,1-.332.332h-.6a.294.294,0,0,1-.332-.332v-10.472a.294.294,0,0,1,.332-.332h.443a.341.341,0,0,1,.375.332l.089.952a8.75,8.75,0,0,1,2.257-1.2,7.034,7.034,0,0,1,2.345-.421" transform="translate(-719.145 120.653)"/>
    </clipPath>
    <clipPath id="clip-path-7">
      <path id="path92" d="M886.386-146.535q-3.1,0-3.1,2.391,0,2.081,2.191,2.081a5.634,5.634,0,0,0,1.814-.332,9.008,9.008,0,0,0,1.97-.974v-2.767A11.233,11.233,0,0,0,886.386-146.535Zm.31-6.088q3.828,0,3.828,3.3v7.837a.293.293,0,0,1-.332.332h-.465a.316.316,0,0,1-.354-.332l-.089-.952a6.285,6.285,0,0,1-3.983,1.528,3.32,3.32,0,0,1-2.423-.875,3.112,3.112,0,0,1-.9-2.336,3.164,3.164,0,0,1,1.1-2.546,4.521,4.521,0,0,1,3.021-.93,10.005,10.005,0,0,1,1.549.132,11.2,11.2,0,0,1,1.616.377v-1.86a2.521,2.521,0,0,0-.642-1.937,3.113,3.113,0,0,0-2.124-.587,10.411,10.411,0,0,0-2.9.443q-.244.067-.387.122a.69.69,0,0,1-.232.055q-.266,0-.266-.288v-.354a.43.43,0,0,1,.288-.443,9.631,9.631,0,0,1,1.8-.509A10.434,10.434,0,0,1,886.7-152.623Zm-10.748,6.553-3.209,4.671a.548.548,0,0,1-.465.244h-.619c-.192,0-.288-.081-.288-.244a.6.6,0,0,1,.155-.287l3.784-5.269-3.452-4.826a.683.683,0,0,1-.133-.265q0-.244.287-.244h.686a.549.549,0,0,1,.465.244l2.9,4.118,2.9-4.118a.529.529,0,0,1,.443-.244h.6q.288,0,.288.244a.644.644,0,0,1-.133.288l-3.408,4.716,3.784,5.358a.646.646,0,0,1,.133.287c0,.163-.1.244-.288.244h-.686a.528.528,0,0,1-.443-.244Zm-10.219-5.424a3.519,3.519,0,0,0-2.622.974,4.626,4.626,0,0,0-1.161,2.856,14.174,14.174,0,0,0,1.715.332,13.256,13.256,0,0,0,1.715.111,4.7,4.7,0,0,0,2.434-.487,1.7,1.7,0,0,0,.774-1.55Q868.583-151.495,865.729-151.494Zm2.81,9.143q.287-.088.42-.144a.643.643,0,0,1,.243-.055q.266,0,.265.288v.31a.456.456,0,0,1-.243.465,8.714,8.714,0,0,1-3.386.664,4.982,4.982,0,0,1-3.883-1.472,6.194,6.194,0,0,1-1.338-4.306,8.314,8.314,0,0,1,.354-2.513,5.371,5.371,0,0,1,1.029-1.9,4.383,4.383,0,0,1,1.649-1.2,5.6,5.6,0,0,1,2.191-.41,4.494,4.494,0,0,1,2.976.885,3.066,3.066,0,0,1,1.051,2.48,2.58,2.58,0,0,1-1.117,2.314,6.377,6.377,0,0,1-3.463.742,14.593,14.593,0,0,1-1.693-.1,10.4,10.4,0,0,1-1.693-.343,5.228,5.228,0,0,0,1.007,3.531,3.818,3.818,0,0,0,3.021,1.14A9.375,9.375,0,0,0,868.539-142.351Zm-12.051-14.855a.293.293,0,0,1,.332-.332h.6a.294.294,0,0,1,.332.332v14.125a.989.989,0,0,0,.188.686.908.908,0,0,0,.675.2,2.283,2.283,0,0,0,.3-.022,2.13,2.13,0,0,1,.277-.022.274.274,0,0,1,.31.31v.421a.32.32,0,0,1-.288.332,1.8,1.8,0,0,1-.387.066c-.17.014-.321.022-.454.022a1.822,1.822,0,0,1-1.383-.521,2.01,2.01,0,0,1-.5-1.45Zm-7.059,10.671q-3.1,0-3.1,2.391,0,2.081,2.191,2.081a5.631,5.631,0,0,0,1.814-.332,9,9,0,0,0,1.97-.974v-2.767A11.232,11.232,0,0,0,849.429-146.535Zm.31-6.088q3.828,0,3.828,3.3v7.837a.293.293,0,0,1-.331.332h-.465a.316.316,0,0,1-.354-.332l-.088-.952a6.286,6.286,0,0,1-3.983,1.528,3.319,3.319,0,0,1-2.423-.875,3.113,3.113,0,0,1-.9-2.336,3.163,3.163,0,0,1,1.1-2.546,4.521,4.521,0,0,1,3.021-.93,10.008,10.008,0,0,1,1.549.132,11.2,11.2,0,0,1,1.616.377v-1.86a2.521,2.521,0,0,0-.642-1.937,3.113,3.113,0,0,0-2.124-.587,10.413,10.413,0,0,0-2.9.443q-.244.067-.387.122a.693.693,0,0,1-.233.055q-.266,0-.266-.288v-.354a.43.43,0,0,1,.288-.443,9.631,9.631,0,0,1,1.8-.509A10.431,10.431,0,0,1,849.739-152.623Z" transform="translate(-845.026 157.538)"/>
    </clipPath>
    <clipPath id="clip-path-8">
      <path id="path104" d="M11.542-173.333A11.545,11.545,0,0,0,0-161.785,11.548,11.548,0,0,0,10-150.34v-2.327a1.531,1.531,0,0,0-1.035-1.454,8.086,8.086,0,0,1-5.5-7.859,8.053,8.053,0,0,1,8.16-7.888,8.082,8.082,0,0,1,8,8.083c0,.1,0,.2-.006.3,0,.022,0,.045,0,.068q-.006.139-.017.278c0,.029-.005.059-.008.088q-.009.1-.02.192c-.008.073-.018.145-.028.216,0,.033-.009.066-.014.1-.989,6.519-9.476,10.183-9.523,10.2a11.654,11.654,0,0,0,1.538.1,11.545,11.545,0,0,0,11.542-11.548,11.545,11.545,0,0,0-11.542-11.548" transform="translate(0 173.333)"/>
    </clipPath>
  </defs>
  <g id="amazon-a" transform="translate(0 173.333)">
    <g id="g12" transform="translate(0 -173.333)">
      <path id="path14" d="M251.743-114.564q-3.1,0-3.1,2.391,0,2.081,2.191,2.081a5.634,5.634,0,0,0,1.814-.332,9.008,9.008,0,0,0,1.97-.974v-2.767a11.231,11.231,0,0,0-2.877-.4m.31-6.088q3.828,0,3.828,3.3v7.837a.293.293,0,0,1-.332.332h-.465a.316.316,0,0,1-.354-.332l-.088-.952a6.285,6.285,0,0,1-3.983,1.528,3.319,3.319,0,0,1-2.423-.875,3.113,3.113,0,0,1-.9-2.336,3.163,3.163,0,0,1,1.1-2.546,4.521,4.521,0,0,1,3.021-.93,10,10,0,0,1,1.549.132,11.2,11.2,0,0,1,1.615.377v-1.86a2.523,2.523,0,0,0-.642-1.937,3.114,3.114,0,0,0-2.124-.587,10.414,10.414,0,0,0-2.9.443q-.244.067-.387.122a.689.689,0,0,1-.232.055q-.266,0-.266-.288v-.354a.43.43,0,0,1,.288-.443,9.631,9.631,0,0,1,1.8-.509,10.437,10.437,0,0,1,1.892-.177" transform="translate(-214.383 127.672)" fill="#3f3b3c" fill-rule="evenodd"/>
      <g id="g16" transform="translate(32.957 7.019)">
        <g id="g18" clip-path="url(#clip-path)">
          <path id="path24" d="M234.187-118.588h12.046v-15.217H234.187v15.217" transform="translate(-235.94 132.053)" fill="#3f3b3c"/>
        </g>
      </g>
      <path id="path26" d="M346.488-120.653a3.027,3.027,0,0,1,2.323.853,3.556,3.556,0,0,1,.8,2.513v7.771a.294.294,0,0,1-.332.332h-.6a.293.293,0,0,1-.332-.332v-7.239a3.472,3.472,0,0,0-.5-2.1,1.931,1.931,0,0,0-1.626-.642,6.607,6.607,0,0,0-4.005,1.395,8.39,8.39,0,0,1,.066,1.04v7.549a.294.294,0,0,1-.332.332h-.6a.294.294,0,0,1-.332-.332v-7.239a3.475,3.475,0,0,0-.5-2.1,1.932,1.932,0,0,0-1.626-.642,6.656,6.656,0,0,0-3.939,1.351v8.634a.294.294,0,0,1-.332.332h-.6a.293.293,0,0,1-.332-.332v-10.472a.293.293,0,0,1,.332-.332h.443a.341.341,0,0,1,.376.332l.089.886a8.719,8.719,0,0,1,2.08-1.14,6.044,6.044,0,0,1,2.146-.41,2.729,2.729,0,0,1,2.788,1.7,8.164,8.164,0,0,1,2.224-1.273,6.6,6.6,0,0,1,2.313-.432" transform="translate(-289.235 127.673)" fill="#3f3b3c" fill-rule="evenodd"/>
      <g id="g28" transform="translate(44.463 7.019)">
        <g id="g30" clip-path="url(#clip-path-2)">
          <path id="path36" d="M320.546-118.832h19.415V-133.8H320.546v14.973" transform="translate(-322.298 132.053)" fill="#3f3b3c"/>
        </g>
      </g>
      <path id="path38" d="M474.443-114.564q-3.1,0-3.1,2.391,0,2.081,2.191,2.081a5.633,5.633,0,0,0,1.814-.332,9.01,9.01,0,0,0,1.97-.974v-2.767a11.234,11.234,0,0,0-2.877-.4m.31-6.088q3.828,0,3.828,3.3v7.837a.293.293,0,0,1-.332.332h-.465a.316.316,0,0,1-.354-.332l-.088-.952a6.285,6.285,0,0,1-3.983,1.528,3.319,3.319,0,0,1-2.423-.875,3.112,3.112,0,0,1-.9-2.336,3.163,3.163,0,0,1,1.1-2.546,4.521,4.521,0,0,1,3.021-.93,10,10,0,0,1,1.549.132,11.2,11.2,0,0,1,1.616.377v-1.86a2.522,2.522,0,0,0-.642-1.937,3.113,3.113,0,0,0-2.124-.587,10.414,10.414,0,0,0-2.9.443q-.244.067-.387.122a.69.69,0,0,1-.233.055q-.266,0-.266-.288v-.354a.43.43,0,0,1,.288-.443,9.637,9.637,0,0,1,1.8-.509,10.435,10.435,0,0,1,1.892-.177" transform="translate(-407.409 127.672)" fill="#3f3b3c" fill-rule="evenodd"/>
      <g id="g40" transform="translate(62.63 7.019)">
        <g id="g42" clip-path="url(#clip-path-3)">
          <path id="path48" d="M456.887-118.588h12.046v-15.217H456.887v15.217" transform="translate(-458.639 132.053)" fill="#3f3b3c"/>
        </g>
      </g>
      <path id="path50" d="M558.538-107.8v.443a.293.293,0,0,1-.332.332h-7.789a.293.293,0,0,1-.332-.332v-.465a.94.94,0,0,1,.056-.354,1.182,1.182,0,0,1,.21-.31l6.727-8.568h-6.439a.294.294,0,0,1-.332-.332v-.443a.294.294,0,0,1,.332-.332h7.524a.294.294,0,0,1,.332.332v.465a.992.992,0,0,1-.055.332,1.149,1.149,0,0,1-.232.354l-6.749,8.546h6.749a.293.293,0,0,1,.332.332" transform="translate(-476.79 125.512)" fill="#3f3b3c" fill-rule="evenodd"/>
      <g id="g52" transform="translate(73.296 7.351)">
        <g id="g54" clip-path="url(#clip-path-4)">
          <path id="path60" d="M536.933-116.672h11.958v-14.641H536.933v14.641" transform="translate(-538.686 129.56)" fill="#3f3b3c"/>
        </g>
      </g>
      <path id="path62" d="M628.955-110q3.828,0,3.828-4.76,0-4.738-3.828-4.738t-3.828,4.738q0,4.76,3.828,4.76m0,1.151a4.774,4.774,0,0,1-3.773-1.539,6.387,6.387,0,0,1-1.361-4.372,6.344,6.344,0,0,1,1.361-4.361,4.791,4.791,0,0,1,3.773-1.528,4.792,4.792,0,0,1,3.773,1.528,6.344,6.344,0,0,1,1.361,4.361,6.387,6.387,0,0,1-1.361,4.372,4.774,4.774,0,0,1-3.773,1.539" transform="translate(-540.701 127.672)" fill="#3f3b3c" fill-rule="evenodd"/>
      <g id="g64" transform="translate(83.121 7.019)">
        <g id="g66" clip-path="url(#clip-path-5)">
          <path id="path72" d="M610.669-118.5h13.772V-133.8H610.669V-118.5" transform="translate(-612.422 132.053)" fill="#3f3b3c"/>
        </g>
      </g>
      <path id="path74" d="M724.987-120.653a3.336,3.336,0,0,1,2.479.853,3.436,3.436,0,0,1,.84,2.513v7.771a.293.293,0,0,1-.331.332h-.6a.293.293,0,0,1-.332-.332v-7.239a3.209,3.209,0,0,0-.554-2.1,2.217,2.217,0,0,0-1.77-.642,6.831,6.831,0,0,0-2.235.365,8.907,8.907,0,0,0-2.08,1.052v8.568a.294.294,0,0,1-.332.332h-.6a.294.294,0,0,1-.332-.332v-10.472a.294.294,0,0,1,.332-.332h.443a.341.341,0,0,1,.375.332l.089.952a8.75,8.75,0,0,1,2.257-1.2,7.034,7.034,0,0,1,2.345-.421" transform="translate(-623.323 127.673)" fill="#3f3b3c" fill-rule="evenodd"/>
      <g id="g76" transform="translate(95.822 7.019)">
        <g id="g78" clip-path="url(#clip-path-6)">
          <path id="path84" d="M705.993-118.832h12.666V-133.8H705.993v14.973" transform="translate(-707.745 132.053)" fill="#3f3b3c"/>
        </g>
      </g>
      <path id="path86" d="M886.386-146.535q-3.1,0-3.1,2.391,0,2.081,2.191,2.081a5.634,5.634,0,0,0,1.814-.332,9.008,9.008,0,0,0,1.97-.974v-2.767A11.233,11.233,0,0,0,886.386-146.535Zm.31-6.088q3.828,0,3.828,3.3v7.837a.293.293,0,0,1-.332.332h-.465a.316.316,0,0,1-.354-.332l-.089-.952a6.285,6.285,0,0,1-3.983,1.528,3.32,3.32,0,0,1-2.423-.875,3.112,3.112,0,0,1-.9-2.336,3.164,3.164,0,0,1,1.1-2.546,4.521,4.521,0,0,1,3.021-.93,10.005,10.005,0,0,1,1.549.132,11.2,11.2,0,0,1,1.616.377v-1.86a2.521,2.521,0,0,0-.642-1.937,3.113,3.113,0,0,0-2.124-.587,10.411,10.411,0,0,0-2.9.443q-.244.067-.387.122a.69.69,0,0,1-.232.055q-.266,0-.266-.288v-.354a.43.43,0,0,1,.288-.443,9.631,9.631,0,0,1,1.8-.509A10.434,10.434,0,0,1,886.7-152.623Zm-10.748,6.553-3.209,4.671a.548.548,0,0,1-.465.244h-.619c-.192,0-.288-.081-.288-.244a.6.6,0,0,1,.155-.287l3.784-5.269-3.452-4.826a.683.683,0,0,1-.133-.265q0-.244.287-.244h.686a.549.549,0,0,1,.465.244l2.9,4.118,2.9-4.118a.529.529,0,0,1,.443-.244h.6q.288,0,.288.244a.644.644,0,0,1-.133.288l-3.408,4.716,3.784,5.358a.646.646,0,0,1,.133.287c0,.163-.1.244-.288.244h-.686a.528.528,0,0,1-.443-.244Zm-10.219-5.424a3.519,3.519,0,0,0-2.622.974,4.626,4.626,0,0,0-1.161,2.856,14.174,14.174,0,0,0,1.715.332,13.256,13.256,0,0,0,1.715.111,4.7,4.7,0,0,0,2.434-.487,1.7,1.7,0,0,0,.774-1.55Q868.583-151.495,865.729-151.494Zm2.81,9.143q.287-.088.42-.144a.643.643,0,0,1,.243-.055q.266,0,.265.288v.31a.456.456,0,0,1-.243.465,8.714,8.714,0,0,1-3.386.664,4.982,4.982,0,0,1-3.883-1.472,6.194,6.194,0,0,1-1.338-4.306,8.314,8.314,0,0,1,.354-2.513,5.371,5.371,0,0,1,1.029-1.9,4.383,4.383,0,0,1,1.649-1.2,5.6,5.6,0,0,1,2.191-.41,4.494,4.494,0,0,1,2.976.885,3.066,3.066,0,0,1,1.051,2.48,2.58,2.58,0,0,1-1.117,2.314,6.377,6.377,0,0,1-3.463.742,14.593,14.593,0,0,1-1.693-.1,10.4,10.4,0,0,1-1.693-.343,5.228,5.228,0,0,0,1.007,3.531,3.818,3.818,0,0,0,3.021,1.14A9.375,9.375,0,0,0,868.539-142.351Zm-12.051-14.855a.293.293,0,0,1,.332-.332h.6a.294.294,0,0,1,.332.332v14.125a.989.989,0,0,0,.188.686.908.908,0,0,0,.675.2,2.283,2.283,0,0,0,.3-.022,2.13,2.13,0,0,1,.277-.022.274.274,0,0,1,.31.31v.421a.32.32,0,0,1-.288.332,1.8,1.8,0,0,1-.387.066c-.17.014-.321.022-.454.022a1.822,1.822,0,0,1-1.383-.521,2.01,2.01,0,0,1-.5-1.45Zm-7.059,10.671q-3.1,0-3.1,2.391,0,2.081,2.191,2.081a5.631,5.631,0,0,0,1.814-.332,9,9,0,0,0,1.97-.974v-2.767A11.232,11.232,0,0,0,849.429-146.535Zm.31-6.088q3.828,0,3.828,3.3v7.837a.293.293,0,0,1-.331.332h-.465a.316.316,0,0,1-.354-.332l-.088-.952a6.286,6.286,0,0,1-3.983,1.528,3.319,3.319,0,0,1-2.423-.875,3.113,3.113,0,0,1-.9-2.336,3.163,3.163,0,0,1,1.1-2.546,4.521,4.521,0,0,1,3.021-.93,10.008,10.008,0,0,1,1.549.132,11.2,11.2,0,0,1,1.616.377v-1.86a2.521,2.521,0,0,0-.642-1.937,3.113,3.113,0,0,0-2.124-.587,10.413,10.413,0,0,0-2.9.443q-.244.067-.387.122a.693.693,0,0,1-.233.055q-.266,0-.266-.288v-.354a.43.43,0,0,1,.288-.443,9.631,9.631,0,0,1,1.8-.509,10.431,10.431,0,0,1,1.892-.177" transform="translate(-732.431 159.643)" fill="#3f3b3c" fill-rule="evenodd"/>
      <g id="g88" transform="translate(112.595 2.105)">
        <g id="g90" clip-path="url(#clip-path-7)">
          <path id="path96" d="M831.874-150.469h49v-20.22h-49v20.22" transform="translate(-833.626 168.937)" fill="#3f3b3c"/>
        </g>
      </g>
      <path id="path98" d="M11.542-173.333A11.545,11.545,0,0,0,0-161.785,11.548,11.548,0,0,0,10-150.34v-2.327a1.531,1.531,0,0,0-1.035-1.454,8.086,8.086,0,0,1-5.5-7.859,8.053,8.053,0,0,1,8.16-7.888,8.082,8.082,0,0,1,8,8.083c0,.1,0,.2-.006.3,0,.022,0,.045,0,.068q-.006.139-.017.278c0,.029-.005.059-.008.088q-.009.1-.02.192c-.008.073-.018.145-.028.216,0,.033-.009.066-.014.1-.989,6.519-9.476,10.183-9.523,10.2a11.654,11.654,0,0,0,1.538.1,11.545,11.545,0,0,0,11.542-11.548,11.545,11.545,0,0,0-11.542-11.548" transform="translate(0 173.333)" fill="#5fcaf4" fill-rule="evenodd"/>
      <g id="g100">
        <g id="g102" clip-path="url(#clip-path-8)">
          <path id="path108" d="M-13.152-159.884H13.437v-26.6H-13.152v26.6" transform="translate(11.4 184.732)" fill="#5fcaf4"/>
        </g>
      </g>
    </g>
  </g>
</svg>
