<svg xmlns="http://www.w3.org/2000/svg" width="35.32" height="25.062" viewBox="0 0 35.32 25.062">
  <g id="automotive" transform="translate(4.54 -1.814)">
    <g id="Group_634" data-name="Group 634" transform="translate(-4.54 1.814)">
      <g id="Group_633" data-name="Group 633">
        <g id="Group_632" data-name="Group 632">
          <path id="Path_43862" data-name="Path 43862" d="M34.785,18.011l-3.6-1.027-2.819-5.675A5.058,5.058,0,0,0,23.808,8.49H13.186a5.109,5.109,0,0,0-4.76,3.3L6.447,17.1l-1.12.56A3.356,3.356,0,0,0,3.46,20.68v8.587H8.2V27.2H5.551V20.68a1.279,1.279,0,0,1,.728-1.157l1.251-.635H30.136v-.056l4.088,1.176a3.439,3.439,0,0,1,2.221,2H34.617v2.072h2.072V27.2H33.441v2.072H38.78V23.294A5.516,5.516,0,0,0,34.785,18.011ZM17.312,16.816H8.78l1.605-4.275a3.008,3.008,0,0,1,2.819-1.96H17.33v6.235Zm2.072,0V10.581h4.424A2.984,2.984,0,0,1,26.5,12.242l2.277,4.574Z" transform="translate(-3.46 -8.49)"/>
          <rect id="Rectangle_1080" data-name="Rectangle 1080" width="7.019" height="2.072" transform="translate(13.852 18.705)"/>
        </g>
        <path id="Path_43863" data-name="Path 43863" d="M10.886,16.48a4.966,4.966,0,1,0,4.966,4.966A4.963,4.963,0,0,0,10.886,16.48Zm0,8.251a3.3,3.3,0,1,1,3.3-3.3A3.3,3.3,0,0,1,10.886,24.731Z" transform="translate(-1.328 -1.564)" stroke="#000" stroke-miterlimit="10" stroke-width="0.43"/>
        <path id="Path_43864" data-name="Path 43864" d="M19.316,16.48a4.966,4.966,0,1,0,4.966,4.966A4.963,4.963,0,0,0,19.316,16.48Zm0,8.251a3.3,3.3,0,1,1,3.3-3.3A3.3,3.3,0,0,1,19.316,24.731Z" transform="translate(5.979 -1.564)" stroke="#000" stroke-miterlimit="10" stroke-width="0.43"/>
      </g>
    </g>
  </g>
</svg>
