<svg version="1.1" id="Capa_1" xmlns="http://www.w3.org/2000/svg" x="0" y="0" viewBox="0 0 30 30" xml:space="preserve"><style>.st0{fill:#739ee9}</style><path class="st0" d="M23.2 21.4c-1.2 0-2.2.8-2.6 1.8H9.3c-.3-1-1.3-1.8-2.5-1.8-1.5 0-2.7 1.2-2.7 2.7s1.2 2.7 2.7 2.7C8 26.8 9 26 9.4 25h11.3c.4 1.1 1.4 1.8 2.6 1.8 1.5 0 2.7-1.2 2.7-2.7s-1.2-2.7-2.8-2.7zM6.8 3.1C3.2 3.1.4 6 .4 9.5c0 3.3 5.1 9.1 5.7 9.8.2.2.4.3.7.3s.5-.1.7-.3c.6-.7 5.7-6.5 5.7-9.8 0-3.5-2.9-6.4-6.4-6.4zm0 9.2C5.2 12.3 4 11 4 9.5s1.2-2.7 2.7-2.7S9.5 8 9.5 9.5s-1.2 2.8-2.7 2.8zM23.2 3.1c-3.5 0-6.4 2.9-6.4 6.4 0 3.3 5.1 9.1 5.7 9.8.2.2.4.3.7.3.3 0 .5-.1.7-.3.6-.7 5.7-6.5 5.7-9.8 0-3.5-2.8-6.4-6.4-6.4zm0 9.2c-1.5 0-2.7-1.2-2.7-2.7s1.2-2.7 2.7-2.7C24.8 6.8 26 8 26 9.5s-1.2 2.8-2.8 2.8z"/></svg>