<svg xmlns="http://www.w3.org/2000/svg" width="31.246" height="26.256" viewBox="0 0 31.246 26.256">
  <g id="Group_635" data-name="Group 635" transform="translate(0.1 0.1)">
    <path id="Path_43865" data-name="Path 43865" d="M19.668,18.653H19.3l-14.6-4.8L5.254,12l14.229,4.8L33.713,12l.554,1.848-14.6,4.8C19.853,18.468,19.668,18.653,19.668,18.653Z" transform="translate(-4.146 -2.945)" stroke="#000" stroke-miterlimit="10" stroke-width="0.2"/>
    <path id="Path_43866" data-name="Path 43866" d="M31.935,31.291H7.911A3.509,3.509,0,0,1,4.4,27.78V12.811A3.509,3.509,0,0,1,7.911,9.3H31.935a3.509,3.509,0,0,1,3.511,3.511V20.2H33.413V12.811a1.656,1.656,0,0,0-1.663-1.663H7.726a1.656,1.656,0,0,0-1.663,1.663V27.78a1.656,1.656,0,0,0,1.663,1.663H31.75a1.656,1.656,0,0,0,1.663-1.663v-4.25h2.033v4.066A3.673,3.673,0,0,1,31.935,31.291Z" transform="translate(-4.4 -5.234)" stroke="#000" stroke-miterlimit="10" stroke-width="0.2"/>
    <path id="Path_43867" data-name="Path 43867" d="M20.433,12.089H18.4V9.318a.4.4,0,0,0-.37-.37H12.118a.4.4,0,0,0-.37.37V11.9H9.9V9.318A2.247,2.247,0,0,1,12.118,7.1h5.913a2.247,2.247,0,0,1,2.218,2.218v2.772Z" transform="translate(0.264 -7.1)" stroke="#000" stroke-miterlimit="10" stroke-width="0.2"/>
  </g>
</svg>
