<svg xmlns="http://www.w3.org/2000/svg" width="119.527" height="23.14" viewBox="0 0 119.527 23.14">
  <g id="fb" transform="translate(-102.3 -101.83)">
    <path id="Path_43963" data-name="Path 43963" d="M111.652,105.453c-1.407,0-1.814.624-1.814,2v2.284h3.754l-.376,3.689h-3.376v11.2h-4.5v-11.2H102.3v-3.689h3.035v-2.221c0-3.722,1.5-5.687,5.687-5.687a21.316,21.316,0,0,1,2.625.156v3.472Z" fill="#1877f2"/>
    <path id="Path_43964" data-name="Path 43964" d="M181.87,161.171c0-4.159,1.97-7.291,6.1-7.291a4.426,4.426,0,0,1,4.284,2.6V154.2h4.315v14.886h-4.315v-2.252a4.371,4.371,0,0,1-4.284,2.565c-4.128,0-6.1-3.128-6.1-7.291Zm4.5,1c0,2.22.812,3.689,2.908,3.689,1.846,0,2.784-1.345,2.784-3.471V160.9c0-2.126-.938-3.471-2.784-3.471-2.1,0-2.908,1.47-2.908,3.689Z" transform="translate(-67.966 -44.46)" fill="#1877f2"/>
    <path id="Path_43965" data-name="Path 43965" d="M301.934,153.91a8.237,8.237,0,0,1,4.315,1l-1,3.191a7.087,7.087,0,0,0-3-.688c-2.44,0-3.5,1.407-3.5,3.816v.875c0,2.409,1.063,3.816,3.5,3.816a7.087,7.087,0,0,0,3-.688l1,3.189a8.218,8.218,0,0,1-4.315,1c-5.286,0-7.694-2.847-7.694-7.412v-.688C294.24,156.757,296.648,153.91,301.934,153.91Z" transform="translate(-163.95 -44.486)" fill="#1877f2"/>
    <path id="Path_43966" data-name="Path 43966" d="M380.66,162.312V161c0-4.222,2.408-7,7.319-7,4.629,0,6.661,2.814,6.661,6.943v2.377h-9.479c.095,2.033,1,2.94,3.5,2.94a12.79,12.79,0,0,0,4.786-.907l.824,3.084a14.5,14.5,0,0,1-5.785,1.1C382.786,169.531,380.66,166.687,380.66,162.312Zm4.5-1.94h5.442V160c0-1.626-.656-2.917-2.625-2.917-2.034,0-2.817,1.285-2.817,3.286Z" transform="translate(-237.767 -44.562)" fill="#1877f2"/>
    <path id="Path_43967" data-name="Path 43967" d="M504.208,117.8c0,4.159-2,7.291-6.125,7.291a4.606,4.606,0,0,1-4.44-2.565v2.252H489.39V102.408l4.5-.408v9.946a4.5,4.5,0,0,1,4.191-2.377c4.128,0,6.125,3.128,6.125,7.291Zm-4.5-1.032c0-2.1-.812-3.659-2.971-3.659-1.846,0-2.847,1.312-2.847,3.44v1.563c0,2.126,1,3.44,2.847,3.44,2.158,0,2.971-1.563,2.971-3.659Z" transform="translate(-330.641 -0.146)" fill="#1877f2"/>
    <path id="Path_43968" data-name="Path 43968" d="M601.33,162.041v-.75c0-4.286,2.44-7.382,7.412-7.382s7.414,3.1,7.414,7.382v.75c0,4.284-2.44,7.382-7.412,7.382S601.33,166.326,601.33,162.041Zm10.322-1.063c0-1.97-.814-3.533-2.917-3.533s-2.909,1.563-2.909,3.533v1.377c0,1.97.814,3.533,2.909,3.533s2.917-1.563,2.917-3.533Z" transform="translate(-426.257 -44.486)" fill="#1877f2"/>
    <path id="Path_43969" data-name="Path 43969" d="M713.27,162.041v-.75c0-4.286,2.44-7.382,7.412-7.382s7.412,3.1,7.412,7.382v.75c0,4.284-2.44,7.382-7.412,7.382S713.27,166.326,713.27,162.041Zm10.322-1.063c0-1.97-.814-3.533-2.909-3.533s-2.908,1.563-2.908,3.533v1.377c0,1.97.812,3.533,2.908,3.533s2.909-1.563,2.909-3.533Z" transform="translate(-521.873 -44.486)" fill="#1877f2"/>
    <path id="Path_43970" data-name="Path 43970" d="M831,116.982l4.441-7.1h4.785l-4.659,7.35,4.847,7.536h-4.785L831,117.478v7.291h-4.5V102.408L831,102Z" transform="translate(-618.591 -0.146)" fill="#1877f2"/>
  </g>
</svg>
