<svg xmlns="http://www.w3.org/2000/svg" width="33.343" height="33.343" viewBox="0 0 33.343 33.343">
  <g id="government" transform="translate(-3.69 -5.09)">
    <g id="Group_636" data-name="Group 636" transform="translate(3.94 5.34)">
      <path id="XMLID_1608_" d="M36.135,28.143H33.579V26.735a.644.644,0,0,0-.648-.648H29.985V21.734h.445a.644.644,0,0,0,.648-.648.633.633,0,0,0-.648-.648h-1.8V17.1a.641.641,0,0,0-.074-1.278H26.984v-.556A6.635,6.635,0,0,0,21,8.674V5.988a.644.644,0,0,0-.648-.648.633.633,0,0,0-.648.648v2.7a6.622,6.622,0,0,0-5.983,6.595v.556H12.165a.644.644,0,0,0-.648.648.628.628,0,0,0,.574.63v3.334h-1.8a.648.648,0,0,0,0,1.3h.445v4.353H7.812a.644.644,0,0,0-.648.648v1.408H4.588a.644.644,0,0,0-.648.648v8.725a.644.644,0,0,0,.648.648H36.135a.644.644,0,0,0,.648-.648V28.791A.656.656,0,0,0,36.135,28.143ZM15.017,15.287a5.335,5.335,0,1,1,10.67,0v.556H15.017Zm-1.63,1.834H27.354v3.334H13.387Zm-1.352,4.612H28.707v4.353H12.035Zm-6.8,7.706H7.163v7.428H5.237Zm3.2-.648V27.384h23.84v9.484H8.441Zm27.064,8.077H33.579V29.44h1.927Z" transform="translate(-3.94 -5.34)" stroke="#000" stroke-miterlimit="10" stroke-width="0.5"/>
      <path id="XMLID_149_" d="M10.338,12.04a.591.591,0,0,0-.648.519v1.056a.593.593,0,0,0,.648.519.58.58,0,0,0,.648-.519V12.559A.6.6,0,0,0,10.338,12.04Z" transform="translate(0.961 0.371)"/>
      <path id="XMLID_666_" d="M11.718,12.04a.591.591,0,0,0-.648.519v1.056a.593.593,0,0,0,.648.519.58.58,0,0,0,.648-.519V12.559A.593.593,0,0,0,11.718,12.04Z" transform="translate(2.138 0.371)"/>
      <path id="XMLID_1082_" d="M13.108,12.04a.591.591,0,0,0-.648.519v1.056a.665.665,0,0,0,1.3,0V12.559A.618.618,0,0,0,13.108,12.04Z" transform="translate(3.323 0.371)"/>
      <path id="XMLID_1380_" d="M14.488,12.04a.591.591,0,0,0-.648.519v1.056a.593.593,0,0,0,.648.519.58.58,0,0,0,.648-.519V12.559A.6.6,0,0,0,14.488,12.04Z" transform="translate(4.499 0.371)"/>
      <path id="XMLID_1437_" d="M15.878,12.04a.591.591,0,0,0-.648.519v1.056a.593.593,0,0,0,.648.519.58.58,0,0,0,.648-.519V12.559A.618.618,0,0,0,15.878,12.04Z" transform="translate(5.684 0.371)"/>
      <path id="XMLID_1438_" d="M8.25,20.99a.632.632,0,1,0,.445.185A.647.647,0,0,0,8.25,20.99Z" transform="translate(-0.803 8)"/>
      <path id="XMLID_1439_" d="M8.258,18.13a.644.644,0,0,0-.648.648v2.779a.648.648,0,1,0,1.3,0V18.778A.644.644,0,0,0,8.258,18.13Z" transform="translate(-0.812 5.562)"/>
      <path id="XMLID_1455_" d="M10.2,18.13a.644.644,0,0,0-.648.648v5.3a.648.648,0,1,0,1.3,0v-5.3A.644.644,0,0,0,10.2,18.13Z" transform="translate(0.842 5.562)"/>
      <path id="XMLID_1456_" d="M12.138,18.13a.644.644,0,0,0-.648.648v5.3a.644.644,0,0,0,.648.648.633.633,0,0,0,.648-.648v-5.3A.644.644,0,0,0,12.138,18.13Z" transform="translate(2.496 5.562)"/>
      <path id="XMLID_1471_" d="M14.078,18.13a.644.644,0,0,0-.648.648v5.3a.644.644,0,0,0,.648.648.633.633,0,0,0,.648-.648v-5.3A.656.656,0,0,0,14.078,18.13Z" transform="translate(4.149 5.562)"/>
      <path id="XMLID_1480_" d="M16.018,18.13a.644.644,0,0,0-.648.648v5.3a.648.648,0,1,0,1.3,0v-5.3A.656.656,0,0,0,16.018,18.13Z" transform="translate(5.803 5.562)"/>
      <path id="XMLID_1584_" d="M17.94,18.13a.632.632,0,1,0,.445.185A.575.575,0,0,0,17.94,18.13Z" transform="translate(7.457 5.562)"/>
      <path id="XMLID_1585_" d="M17.948,19.51a.644.644,0,0,0-.648.648V22.9a.648.648,0,1,0,1.3,0V20.158A.644.644,0,0,0,17.948,19.51Z" transform="translate(7.448 6.739)"/>
      <path id="XMLID_1598_" d="M9.648,14.79A.641.641,0,0,0,9,15.42v1.334a.644.644,0,0,0,.648.648.633.633,0,0,0,.648-.648V15.42A.653.653,0,0,0,9.648,14.79Z" transform="translate(0.373 2.715)"/>
      <path id="XMLID_1599_" d="M11.028,14.79a.644.644,0,0,0-.648.648v1.334a.644.644,0,0,0,.648.648.633.633,0,0,0,.648-.648V15.438A.644.644,0,0,0,11.028,14.79Z" transform="translate(1.55 2.715)"/>
      <path id="XMLID_1600_" d="M12.418,14.79a.644.644,0,0,0-.648.648v1.334a.644.644,0,0,0,.648.648.633.633,0,0,0,.648-.648V15.438A.656.656,0,0,0,12.418,14.79Z" transform="translate(2.734 2.715)"/>
      <path id="XMLID_1601_" d="M13.8,14.79a.644.644,0,0,0-.648.648v1.334a.644.644,0,0,0,.648.648.633.633,0,0,0,.648-.648V15.438A.644.644,0,0,0,13.8,14.79Z" transform="translate(3.911 2.715)"/>
      <path id="XMLID_1602_" d="M15.188,14.79a.644.644,0,0,0-.648.648v1.334a.644.644,0,0,0,.648.648.633.633,0,0,0,.648-.648V15.438A.656.656,0,0,0,15.188,14.79Z" transform="translate(5.096 2.715)"/>
      <path id="XMLID_1604_" d="M16.568,14.79a.644.644,0,0,0-.648.648v1.334a.648.648,0,1,0,1.3,0V15.438A.644.644,0,0,0,16.568,14.79Z" transform="translate(6.272 2.715)"/>
    </g>
  </g>
</svg>
