<svg xmlns="http://www.w3.org/2000/svg" xmlns:xlink="http://www.w3.org/1999/xlink" width="163.689" height="27.2" viewBox="0 0 163.689 27.2">
  <defs>
    <clipPath id="clip-path">
      <rect id="Rectangle_1361" data-name="Rectangle 1361" width="163.689" height="27.2"/>
    </clipPath>
  </defs>
  <g id="hdfc-bank-vector-logo" transform="translate(-20.7 -272.2)">
    <rect id="Rectangle_1359" data-name="Rectangle 1359" width="163.689" height="27.2" transform="translate(20.7 272.2)" fill="#004a8f"/>
    <rect id="Rectangle_1360" data-name="Rectangle 1360" width="136.407" height="27.2" transform="translate(47.981 272.2)" fill="#001f79"/>
    <path id="Path_44017" data-name="Path 44017" d="M160.712,311.277v-4.993h-3.983v4.993H152.5V298.4h4.229v4.365h3.983V298.4h4.256v12.877Z" transform="translate(-95.843 -19.052)" fill="#fff"/>
    <g id="Group_1141" data-name="Group 1141" transform="translate(20.7 272.2)">
      <g id="Group_1129" data-name="Group 1129" transform="translate(0 0)" clip-path="url(#clip-path)">
        <path id="Path_44018" data-name="Path 44018" d="M211.892,301.619h1.091a4.649,4.649,0,0,1,1.746.245,1.518,1.518,0,0,1,.682.573,3.131,3.131,0,0,1,.436,1.009,5.079,5.079,0,0,1,.136,1.31,4.66,4.66,0,0,1-.327,1.882,2.07,2.07,0,0,1-.928,1.091,3.924,3.924,0,0,1-1.8.327h-1.064v-6.438Zm1.664,9.658a9.4,9.4,0,0,0,2.51-.273,6.376,6.376,0,0,0,1.664-.682,4.234,4.234,0,0,0,1.173-1.146,6.728,6.728,0,0,0,.928-1.882,8.3,8.3,0,0,0,.382-2.564,7.321,7.321,0,0,0-.818-3.6,4.683,4.683,0,0,0-2.264-2.1,8.691,8.691,0,0,0-3.437-.627H207.8v12.877Z" transform="translate(-156.756 -291.252)" fill="#fff"/>
      </g>
      <g id="Group_1130" data-name="Group 1130" transform="translate(0 0)" clip-path="url(#clip-path)">
        <path id="Path_44019" data-name="Path 44019" d="M260.3,311.277V298.4h10.067v3.192H264.5v2.046h4.692v3.11H264.5v4.529Z" transform="translate(-194.934 -291.252)" fill="#fff"/>
      </g>
      <g id="Group_1131" data-name="Group 1131" transform="translate(0 0)" clip-path="url(#clip-path)">
        <path id="Path_44020" data-name="Path 44020" d="M314.859,302.465h-4.01a2.3,2.3,0,0,0-.709-1.5,2.071,2.071,0,0,0-1.473-.518,2.275,2.275,0,0,0-1.828.873,4.515,4.515,0,0,0-.709,2.81,5.578,5.578,0,0,0,.3,2.046,2.163,2.163,0,0,0,.846,1.037,2.59,2.59,0,0,0,1.364.327,2.086,2.086,0,0,0,1.555-.546,2.312,2.312,0,0,0,.682-1.582h4.092a6.635,6.635,0,0,1-.491,2.019,5.1,5.1,0,0,1-1.173,1.637,5.4,5.4,0,0,1-1.937,1.255,7.029,7.029,0,0,1-2.619.436,7.951,7.951,0,0,1-2.728-.436,6.1,6.1,0,0,1-2.1-1.228,5.965,5.965,0,0,1-1.337-1.855,7.24,7.24,0,0,1-.682-3.219,7.752,7.752,0,0,1,.491-2.783,6.528,6.528,0,0,1,1.337-2.182,5.971,5.971,0,0,1,1.91-1.31,7.275,7.275,0,0,1,2.946-.546,8.524,8.524,0,0,1,2.646.409,4.85,4.85,0,0,1,2.019,1.228,6.107,6.107,0,0,1,1.228,1.855,8.278,8.278,0,0,1,.382,1.773" transform="translate(-225.185 -290.38)" fill="#fff"/>
      </g>
      <g id="Group_1132" data-name="Group 1132" transform="translate(0 0)" clip-path="url(#clip-path)">
        <path id="Path_44021" data-name="Path 44021" d="M384.729,301.319a5.209,5.209,0,0,1,1.173.082,1.343,1.343,0,0,1,.6.382,1.131,1.131,0,0,1,.218.682,1.062,1.062,0,0,1-.382.818,2.194,2.194,0,0,1-1.364.3h-1.61v-2.264Zm1.064,9.958a12.1,12.1,0,0,0,2.128-.136,6.263,6.263,0,0,0,1.255-.437,4.115,4.115,0,0,0,.955-.655,3.26,3.26,0,0,0,.764-1.119,3.772,3.772,0,0,0,.273-1.5,3.2,3.2,0,0,0-.573-1.937,2.938,2.938,0,0,0-1.582-1.064A3.155,3.155,0,0,0,390.7,301.7a2.89,2.89,0,0,0-1.473-2.619,6.973,6.973,0,0,0-3.519-.682H379.3v12.877Zm-.682-5.374a2.864,2.864,0,0,1,1.664.327,1.192,1.192,0,0,1-.027,1.773,2.818,2.818,0,0,1-1.637.327h-1.746V305.9h1.746Z" transform="translate(-281.469 -291.252)" fill="#fff"/>
      </g>
      <g id="Group_1133" data-name="Group 1133" transform="translate(0 0)" clip-path="url(#clip-path)">
        <path id="Path_44022" data-name="Path 44022" d="M435.33,306.939h-2.7l1.337-4.692Zm-3.983,4.338.491-1.691h4.229l.491,1.691h4.229L436.148,298.4h-4.31L427.2,311.277Z" transform="translate(-316.301 -291.252)" fill="#fff"/>
      </g>
      <g id="Group_1134" data-name="Group 1134" transform="translate(0 0)" clip-path="url(#clip-path)">
        <path id="Path_44023" data-name="Path 44023" d="M483.5,311.277V298.4h3.956l4.474,6.9v-6.9h4.065v12.877h-4.038l-4.365-6.711v6.711Z" transform="translate(-357.241 -291.252)" fill="#fff"/>
      </g>
      <g id="Group_1135" data-name="Group 1135" transform="translate(0 0)" clip-path="url(#clip-path)">
        <path id="Path_44024" data-name="Path 44024" d="M539.7,311.277V298.4h4.092v4.256l3.847-4.256h4.992l-4.747,4.856,5.238,8.021h-5.1l-3.083-5.129-1.146,1.119v4.01Z" transform="translate(-398.109 -291.252)" fill="#fff"/>
      </g>
      <g id="Group_1136" data-name="Group 1136" transform="translate(0 0)" clip-path="url(#clip-path)">
        <rect id="Rectangle_1368" data-name="Rectangle 1368" width="27.281" height="27.2" fill="#e00"/>
      </g>
      <g id="Group_1137" data-name="Group 1137" transform="translate(0 0)" clip-path="url(#clip-path)">
        <rect id="Rectangle_1370" data-name="Rectangle 1370" width="17.733" height="17.678" transform="translate(4.774 4.747)" fill="#fff"/>
      </g>
      <g id="Group_1138" data-name="Group 1138" transform="translate(0 0)" clip-path="url(#clip-path)">
        <rect id="Rectangle_1372" data-name="Rectangle 1372" width="2.728" height="27.2" transform="translate(12.277)" fill="#fff"/>
      </g>
      <g id="Group_1139" data-name="Group 1139" transform="translate(0 0)" clip-path="url(#clip-path)">
        <rect id="Rectangle_1374" data-name="Rectangle 1374" width="27.281" height="2.728" transform="translate(0 12.222)" fill="#fff"/>
      </g>
      <g id="Group_1140" data-name="Group 1140" transform="translate(0 0)" clip-path="url(#clip-path)">
        <rect id="Rectangle_1376" data-name="Rectangle 1376" width="8.184" height="8.157" transform="translate(9.549 9.521)" fill="#001f79"/>
      </g>
    </g>
  </g>
</svg>
