<svg version="1.1" id="Capa_1" xmlns="http://www.w3.org/2000/svg" x="0" y="0" viewBox="0 0 30 30" xml:space="preserve"><style>.st0{fill:#739ee9;stroke:#739ee9;stroke-width:.25;stroke-miterlimit:10}</style><path class="st0" d="M29 13.9l-2-.9-1.7-3.4c-.5-.9-1.4-1.5-2.5-1.5h-3v-.8c0-1.5-1.2-2.8-2.7-2.8H2.7C1.2 4.5 0 5.7 0 7.3v12.9c0 .9.7 1.7 1.7 1.7H2v.1c0 1.9 1.5 3.5 3.5 3.5C7.4 25.5 9 24 9 22.1V22h11.5v.1c0 1.9 1.5 3.5 3.5 3.5 1.9 0 3.5-1.5 3.5-3.5V22h.9c.9 0 1.7-.8 1.7-1.7v-4.8c-.1-.7-.5-1.4-1.1-1.6zM5.5 24.2c-1.2 0-2.1-1-2.1-2.1s1-2.1 2.1-2.1 2.1 1 2.1 2.1-.9 2.1-2.1 2.1zm12.9-3.6H8.7c-.6-1.2-1.8-2-3.1-2-1.4 0-2.6.8-3.1 2h-.8c-.2 0-.3-.2-.3-.4v-3.4h17.1v3.8h-.1zm0-13.3v8.1H1.3V7.3c0-.8.6-1.4 1.4-1.4H17c.8-.1 1.4.6 1.4 1.4zm1.4 2.1h3c.5 0 1 .3 1.3.8l1.3 2.6h-5.6V9.4zM24 24.2c-1.2 0-2.1-1-2.1-2.1s1-2.1 2.1-2.1c1.2 0 2.1 1 2.1 2.1s-.9 2.1-2.1 2.1zm4.7-4c0 .2-.1.4-.3.4h-1.2c-.8-1.7-2.9-2.5-4.6-1.7-.7.3-1.3.9-1.7 1.7h-1.1v-6.4h6.6l2.1.9c.1.1.2.2.2.4v4.7z"/><path class="st0" d="M9.1 14.2c.1.1.3.2.4.2s.4-.1.4-.2c0 0 .6-.7 1.2-1.6.8-1.2 1.3-2.1 1.3-2.8 0-1.6-1.3-3-3-3s-3 1.3-3 3c0 .7.4 1.6 1.3 2.8.7.9 1.4 1.5 1.4 1.6zM9.5 8c1 0 1.8.8 1.8 1.8 0 .6-.9 2-1.8 3-.8-1.1-1.8-2.4-1.8-3 0-1 .8-1.8 1.8-1.8z"/><circle class="st0" cx="9.5" cy="9.8" r=".6"/></svg>