<svg id="Layer_2" data-name="Layer 2" xmlns="http://www.w3.org/2000/svg" width="61" height="58.504" viewBox="0 0 61 58.504">
  <g id="Layer_1" data-name="Layer 1">
    <path id="Path_44915" data-name="Path 44915" d="M29.6,27.25a1.092,1.092,0,1,1-1.092,1.092A1.08,1.08,0,0,1,29.6,27.25Z" transform="translate(5.704 5.452)" fill="#0080c6" fill-rule="evenodd"/>
    <path id="Path_44916" data-name="Path 44916" d="M12.6,34.154c.228-.168,2.568-3.1,3.012-3.6L24.7,19.669l3.18,26.774c.228,1.608.348,3.24.576,4.8.06.4.1.792.144,1.2a1.818,1.818,0,0,0,.072.612c.2,1.4.312,2.844.5,4.248a5.354,5.354,0,0,0,.084.612,2.4,2.4,0,0,0,.072.528v.06L29.4,0a.672.672,0,0,1-.12.264l-.12.264L12.6,34.13Z" transform="translate(2.521)" fill="#f47721" fill-rule="evenodd"/>
    <path id="Path_44917" data-name="Path 44917" d="M12.145,31.386h3.324v2.16c0,.72-1.62,1.476-2.556,1.56,0-.288.1-.456.1-.78a4.2,4.2,0,0,0-.552-2.436l-.312-.468ZM21.517,28.1a3.156,3.156,0,0,1,1.824.12,2.784,2.784,0,0,1,1.284,1.824H0v1.2c0,.108,0,.132.132.132H6v.648a14.57,14.57,0,0,0-1.476-.216,3.972,3.972,0,0,0-3.108,1.38l-.216.276a2.88,2.88,0,0,0,.132,3.108c2.28-1.2,6.612.12,4.668,1.524a1.764,1.764,0,0,1-2.724-1.56l-.876.576a6.36,6.36,0,0,0-.84.588,3.144,3.144,0,0,0,.792.852c.576.468,1.2.48,1.368.708l.168.264a12.337,12.337,0,0,1,1,1.548h1.98a10.8,10.8,0,0,0-1.416-1.9c1.02-.1,2.808-.888,2.808-2.124a2.172,2.172,0,0,0-.84-1.56,4.62,4.62,0,0,0-.972-.624,5.868,5.868,0,0,0-4.488,0l-.312.12a1.8,1.8,0,0,1,.84-1.332c1.32-.96,3.84-.408,5.064.42.132.1.192.216.36.252v-2.94h3.6l-.264.132a9.409,9.409,0,0,1-1.128.516,2.532,2.532,0,0,0,.4.564c.408.576,1.128,2.04.612,2.772a.528.528,0,0,1-.48.252c-.132,0-.132-.072-.2-.156l-.84-.984a3.18,3.18,0,0,0-.312-.42,4.368,4.368,0,0,0-.744.648l.648,1.044c.228.336.444.684.66,1.032l.816,1.3.18.252.336.528h1.86c-.06-.228-.324-.432-.468-.612-.492-.6-1.008-1.2-1.44-1.8a4.4,4.4,0,0,0,.828-.216,1.668,1.668,0,0,0,.564-.48,3.1,3.1,0,0,0,2.568,0,2.629,2.629,0,0,1,.324-.156v3.24H17.4V31.386h4.02l-1.464.7a10.405,10.405,0,0,1,.972,1.74c.312.972.372,1.464-.5,1.884a12.349,12.349,0,0,1-1.2-1.644,2.4,2.4,0,0,0-.78.648,2.3,2.3,0,0,0,.3.528l2.292,3.6h1.9a1.368,1.368,0,0,0-.216-.3l-.708-.888a9.745,9.745,0,0,1-.936-1.2,2.5,2.5,0,0,0,.768-.228,1.44,1.44,0,0,0,.552-.444,3.948,3.948,0,0,0,.18-3.336,4.464,4.464,0,0,0-.588-1.056h2.256v7.476h1.98V31.386h1V30.042h-1.3c-.144,0-.132-.1-.168-.216-.492-1.536-1.092-3.276-3.12-3.276-.252,0-.5,0-.6.216A7.4,7.4,0,0,0,21.517,28.1Z" transform="translate(0 5.312)" fill="#f47721" fill-rule="evenodd"/>
    <path id="Path_44918" data-name="Path 44918" d="M27.79,30.8l7.2.06-.552.192a4.692,4.692,0,0,0-1.776,1.2,4.4,4.4,0,0,0-.78,1.2c-.216.444-.264.624-.432,1.032-.06.168-.168.276,0,.312h1.392a18.865,18.865,0,0,1,2.28.216,3.792,3.792,0,0,1,1.344.648,1.968,1.968,0,0,1,.912,1.08h-4.14c-.42,0-.312,0-.852.576a9.6,9.6,0,0,0-.924.936H36.6a7.656,7.656,0,0,0,1.7-1.5c1.26-1.44.3-2.616-1.416-3.192a11.4,11.4,0,0,0-3.516-.36c.48-.732.648-1.3,1.38-1.3a9.661,9.661,0,0,1,3.24,1.3,11.929,11.929,0,0,0,1.2-1.2c.132-.132.312-.24.36-.42a7.284,7.284,0,0,1-.792-.42l-.408-.2-.216-.084h-.084c-.084,0,0,0-.1-.072H55.44V29.5h-27.6v1.3Z" transform="translate(5.56 5.902)" fill="#0080c6" fill-rule="evenodd"/>
    <path id="Path_44919" data-name="Path 44919" d="M46.288,35.91V33.318c0-.1,0-.132.132-.132h2.76a.744.744,0,0,1,.348.084,28.682,28.682,0,0,1,0,2.9h-3.24a.624.624,0,0,1,0-.216Zm-1.728.12c0,1.008.468,1.86,1.548,1.86H51.34v-4.8a1.656,1.656,0,0,0-1.452-1.68H44.572v4.62Z" transform="translate(8.916 6.284)" fill="#0080c6" fill-rule="evenodd"/>
    <path id="Path_44920" data-name="Path 44920" d="M38.27,37.886h1.9v-4.4a4.044,4.044,0,0,1,1.56-.3c1.38,0,1.6,1.056,1.6,2.244.252-.168.552-.564.816-.78h0l.072-.06c.144-.12.684-.612.684-.732v-.312A1.836,1.836,0,0,0,43.25,31.6a3,3,0,0,0-1.92.54,5.028,5.028,0,0,0-1.2.852V31.43H38.27v6.48Z" transform="translate(7.657 6.288)" fill="#0080c6" fill-rule="evenodd"/>
    <path id="Path_44921" data-name="Path 44921" d="M28.62,31.542V37.89h1.9V31.41H28.752c-.108,0-.132,0-.132.132Z" transform="translate(5.726 6.284)" fill="#0080c6" fill-rule="evenodd"/>
    <path id="Path_44922" data-name="Path 44922" d="M10.36,10.062,11.716,7.29l4.7,1.08-1.344,2.712S10.348,10.038,10.36,10.062Z" transform="translate(2.073 1.459)" fill="#0080c6" fill-rule="evenodd"/>
    <path id="Path_44923" data-name="Path 44923" d="M15.17,11.152,16.526,8.38l4.7,1.08-1.344,2.712S15.158,11.128,15.17,11.152Z" transform="translate(3.035 1.677)" fill="#0080c6" fill-rule="evenodd"/>
    <path id="Path_44924" data-name="Path 44924" d="M27.92,14.092l1.356-2.772,4.7,1.08-1.344,2.712S27.908,14.068,27.92,14.092Z" transform="translate(5.586 2.265)" fill="#0080c6" fill-rule="evenodd"/>
    <path id="Path_44925" data-name="Path 44925" d="M32.73,15.2l1.356-2.784,4.7,1.092-1.332,2.712S32.658,15.18,32.73,15.2Z" transform="translate(6.548 2.485)" fill="#0080c6" fill-rule="evenodd"/>
  </g>
</svg>
