<svg xmlns="http://www.w3.org/2000/svg" width="151.836" height="18.67" viewBox="0 0 151.836 18.67">
  <g id="Layer_1" data-name="Layer 1" transform="translate(0)">
    <path id="Path_44913" data-name="Path 44913" d="M21.961,0C6.745,0,0,5.461,0,9.592c0,3.431,2.474,5.834,6.371,7.3a80.982,80.982,0,0,1,21-15.193c1.074-.56,1.284-.3.467.21A71.554,71.554,0,0,0,9.942,17.97a23.944,23.944,0,0,0,4.061.7c.56-.747,7.468-11.132,14.609-16.757.653-.513,1.027-.35.513.3A110.223,110.223,0,0,0,17.737,18.67h1.1c11.179,0,21.494-4.131,21.494-9.335C40.328,5.251,33.583,0,21.961,0Zm4.061,1.7A181.756,181.756,0,0,0,6.278,11.249a2.194,2.194,0,0,1-3.151-.537S.373,6.651,6.278,3.5,21.774.21,26.115.84c1.447.187,1.587.257,0,.863ZM37.2,8.122c-.723,4.084-6.535,6.208-10.315,7.211s-3.734-.653-3.2-1.96c.28-.677,5.764-10.805,6.091-11.366s.56-.35,1.027-.163C31.833,2.217,37.807,4.037,37.2,8.122Z" fill="#ed1c2e" fill-rule="evenodd"/>
    <path id="Path_44914" data-name="Path 44914" d="M25.061,5.334v9.335a.653.653,0,0,1-.677.747H21a.63.63,0,0,1-.7-.653V4.611s0-.723-1.05-.723c0-2.334,1.237-2.637,1.61-2.637h3.571c.42,0,.677.373.677.84V5.217c.117-2.007,1.284-3.967,2.334-3.967h3.547c.163,0,2.124.49,2.124,4.084,0-3.454,2.334-4.084,2.45-4.084H38.41c2.334,0,2.754,1.937,2.754,4.014v9.2c0,.77-.84.723-.84.723H36.963a.7.7,0,0,1-.793-.747V6.478a1.307,1.307,0,0,0-1.494-1.284H33.183v9.335c0,.793-.934.723-.934.723H28.889a.653.653,0,0,1-.7-.723V6.618c0-1.33-.723-1.494-3.127-1.4Zm18.11,2.334,1.214-2.334h7.4c2.334,0,2.754,1.167,2.754,2.707v6.348a.84.84,0,0,1-.747.77H51.34a.817.817,0,0,1-.793-.793V11.285c0-.3-.117-.49-.35-.49H48.749s-.817.14-.817.887a.934.934,0,0,0,.7.934h1.424a2.334,2.334,0,0,1-2.007,2.59h-2.1c-2.007,0-2.614-1.424-2.614-3.011v-.257a2.777,2.777,0,0,1,2.987-3.011h3.5a.677.677,0,0,0,0-1.33Zm71.741,0,1.1-2.334h7.421c2.334,0,2.731,1.167,2.731,2.707v6.348a.84.84,0,0,1-.747.77h-2.5a.817.817,0,0,1-.793-.793V11.285c0-.3,0-.49-.327-.49h-1.47s-.817.14-.817.887a.934.934,0,0,0,.7.934h1.447a2.334,2.334,0,0,1-2.03,2.59h-2.1c-2.007,0-2.614-1.424-2.614-3.011v-.257A2.777,2.777,0,0,1,117.9,8.928h3.454a.677.677,0,0,0,0-1.26ZM57.1,14.483V4.471s-.187-.747-1.167-.56c0-.817.77-2.334,1.68-2.334h3.594s.583,0,.583.537V8.158c0-1.26,1.05-2.871,1.89-2.871H66.6A1.96,1.96,0,0,1,68.563,7.5v7a.653.653,0,0,1-.653.723H65.342a.653.653,0,0,1-.583-.723V8.811c0-.84-1.82-1.727-2.894,0v5.648a.677.677,0,0,1-.7.7H57.757a.607.607,0,0,1-.653-.677Zm41.308,0V4.471s-.187-.747-1.167-.56c0-.817.793-2.334,1.68-2.334h3.617a.542.542,0,0,1,.56.537V14.576a.653.653,0,0,1-.677.7H99.065a.607.607,0,0,1-.653-.677Zm-26.885,0V8.508a1.027,1.027,0,0,0-1.26-.84c0-.817.537-2.474,1.424-2.474h2.731a1,1,0,0,1,1.027,1.12v8.168a.653.653,0,0,1-.677.7H72.18a.607.607,0,0,1-.653-.677Zm33.887,0V8.508a1.027,1.027,0,0,0-1.26-.84c0-.817.537-2.474,1.424-2.474h2.731a1,1,0,0,1,1.027,1.12v8.168a.653.653,0,0,1-.677.7h-2.614a.607.607,0,0,1-.63-.677Zm-27.142,0V8.508a1.027,1.027,0,0,0-1.26-.84c0-.817.537-2.474,1.424-2.474h2.731a1,1,0,0,1,1.027,1.12v8.168a.653.653,0,0,1-.677.7H78.9a.607.607,0,0,1-.63-.677Zm7,0V8.718a.98.98,0,0,0-1.26-.77H82.145c.4-.863,1.144-2.8,2.334-2.8h3.034A1.727,1.727,0,0,1,89.1,6.641v7.842a.653.653,0,0,1-.677.7H85.81a.607.607,0,0,1-.63-.677ZM75.471,3a.957.957,0,0,1-.934.957H72.064A.957.957,0,0,1,71.107,3V2.254a.957.957,0,0,1,.957-.957h2.474a.934.934,0,0,1,.934.957ZM98.2,5.054H93.534a3.081,3.081,0,0,0-2.474,3.081v5.041a2.334,2.334,0,0,0,2.007,1.984h3.547c.91,0,1.424-1.774,1.634-2.987H96.615c-.537,0-1.214-.77-1.214-2.03s.7-2.17,1.1-2.17h.864l.84-2.824Zm12.579,0h3.734l-1.1,2.614h-3.734l1.144-2.334Z" transform="translate(25.675 1.667)" fill="#6d6e71" fill-rule="evenodd"/>
  </g>
</svg>
