<svg xmlns="http://www.w3.org/2000/svg" width="138.976" height="25.222" viewBox="0 0 138.976 25.222">
  <g id="maruti-suzuki-logo" transform="translate(-35.441 -35.483)">
    <path id="Path_43971" data-name="Path 43971" d="M35.441,35.483V60.7H84.13V35.483Z"/>
    <g id="Group_1127" data-name="Group 1127" transform="translate(36.083 35.901)">
      <path id="Path_43972" data-name="Path 43972" d="M450.624,59.307c.034,2.579,2.458,4.08,7.075,4.08,5.593,0,8.2-1.283,8.2-4.331,0-3.552-5.8-3.82-8.235-4.162-1.212-.17-1.8-.32-1.8-.858,0-.473.59-.951,1.7-.951,1.465,0,2.364.547,2.481,1.3h5.51c-.2-2.711-2.837-4.069-7.79-4.069-3.9,0-6.865,1.341-6.865,4.121,0,2.037,1.334,3.389,4.255,3.693l3.519.366c2.648.277,2.654,2.084.029,2.084-1.3,0-2.144-.634-2.228-1.276Zm51.967-8.455h-4.477V56.14c0,5.543-.621,6.951,7.193,7.214,7.652.34,7.176-2.954,7.176-7.214V50.852H508V56.8c0,2.29-.194,3.607-2.7,3.646-3.07-.04-2.716-1.356-2.716-3.646Zm27.937,12.162h4.718V50.852h-4.718Zm-16.812,0h4.716l-.093-4.358,4.716,4.358h6.2l-6.732-6.208,7.087-5.954h-5.89l-5.285,4.21v-4.21h-4.716Zm-31.438,0h14.484V60.051h-7.334l7.331-6.437V50.852H482.7v2.809h7.183l-7.6,6.9ZM471.456,50.852h-4.477V56.14c0,5.543-.621,6.951,7.193,7.214,7.652.34,7.176-2.954,7.176-7.214V50.852h-4.479V56.8c0,2.29-.194,3.607-2.7,3.646-3.071-.04-2.717-1.356-2.717-3.646ZM454.637,48.2l-.218-7.133L458.39,48.2H462l3.829-7.186-.218,7.186h4.069V38.7h-6.717l-2.823,6.027L457.154,38.7h-6.53V48.2ZM502.68,38.7v6.2c0,2.364,1.351,3.313,5.14,3.313h3.409c3.158,0,4.879-.884,4.879-3.208V38.7h-4.155v5.711c0,1.327-.564,1.6-2.233,1.6h-.449c-2.008,0-2.41-.218-2.41-1.6V38.7ZM525.534,48.2V40.822h4.143V38.7H517.484v2.125h3.985V48.2Zm-50.51,0,.772-1.633h5.531L482.1,48.2h4.217L481.7,38.7h-6.408L470.694,48.2Zm1.606-3.523,1.91-4.038,1.932,4.038Zm19.2-6.009h-8.483V48.2h4.138V45.7h3c1.181,0,1.773.223,1.773,1.032V48.2h4.3V46.256c0-1.147-1.332-1.7-2.653-1.795,1.471-.287,2.828-.662,2.8-2.541C500.667,39.383,499.384,38.673,495.827,38.673Zm-.646,2.213c.922,0,1.215.524,1.215,1.257,0,.9-.215,1.286-1.215,1.286h-3.7V40.886ZM531.1,38.7h4.145V48.2H531.1Z" transform="translate(-396.912 -38.673)" fill-rule="evenodd"/>
      <path id="Path_43973" data-name="Path 43973" d="M40.347,40.42V64.329h23.5V40.42Zm23.9,0V64.329H87.751V40.42Z" transform="translate(-40.347 -40.191)" fill="#fff" fill-rule="evenodd"/>
      <path id="Path_43974" data-name="Path 43974" d="M69.731,67.845,64.8,72.986h3.218a1.691,1.691,0,0,0,1.718-1.859Zm-.163-10.639v3.722a2.326,2.326,0,0,1-.7,1.783l-4.238,4.276a.833.833,0,0,0-.246.923l5.251-5.29v3.107a3.614,3.614,0,0,1-.707,2.367l-4.666,4.889H59.1V65.142c.007-2.4.294-2.912,1.013-3.722l9.366-9.562,0,3.643a2.47,2.47,0,0,1-.732,1.785L64.61,61.56a.827.827,0,0,0-.246.923l3.425-3.452ZM48.045,67.845l4.938,5.14h-3.22a1.691,1.691,0,0,1-1.718-1.859Zm.163-10.639v3.722a2.331,2.331,0,0,0,.7,1.783l4.238,4.276a.833.833,0,0,1,.246.923l-3.426-3.452L48.147,62.62v3.107a3.6,3.6,0,0,0,.707,2.367l4.666,4.889h5.158V65.142c-.007-2.4-.294-2.912-1.013-3.722L48.3,51.858V55.5a2.469,2.469,0,0,0,.732,1.785l4.135,4.274a.827.827,0,0,1,.246.923l-3.425-3.452Z" transform="translate(-47.037 -50.132)" fill="#384192" fill-rule="evenodd"/>
      <path id="Path_43975" data-name="Path 43975" d="M241.32,50.676a39.636,39.636,0,0,1-10.534,6.475L244.4,66.814l-.767.364L238,63.465c-1.834-1.209-6.39-.371-7.308,1.164L241.166,71.9a33.12,33.12,0,0,1,10.587-6.629L237.98,55.763l.73-.566,4.46,3.165c2.223,1.578,3.99,1.994,8.783-.342Z" transform="translate(-205.768 -49.105)" fill="#de0029" fill-rule="evenodd"/>
    </g>
  </g>
</svg>
