<?xml version="1.0" encoding="utf-8"?>
<!-- Generator: Adobe Illustrator 25.2.1, SVG Export Plug-In . SVG Version: 6.00 Build 0)  -->
<svg version="1.1" id="Layer_1" xmlns="http://www.w3.org/2000/svg" xmlns:xlink="http://www.w3.org/1999/xlink" x="0px" y="0px"
	 viewBox="0 0 1737.3 200" style="enable-background:new 0 0 1737.3 200;" xml:space="preserve">
<style type="text/css">
	.st0{fill-rule:evenodd;clip-rule:evenodd;fill:#E50008;}
</style>
<path class="st0" d="M1267.8,0h59.3v195.2h-59.3V0z M1545.3,0h40.4L1572,53.2h-29.4L1545.3,0L1545.3,0z M1655.3,28.9
	c39.5,0,76.5,10,76.7,48.7h-56.4c0-13.4-7.8-19.4-20.9-19.4c-7.8,0-18.3,3.2-18.3,15.5c0,20.3,32.1,16.2,59.3,24.3
	c24.5,7.3,41.5,21.9,41.5,45.4c0,36.1-28.4,56.1-81.9,56.3c-56.2,0.2-77.3-20-77.5-56.3h57.1c0,13.7,8.5,21.9,20.5,21.9
	c14.4,0,20.9-5.5,20.9-15.7c0-21.2-39.3-20.7-62.5-28.3c-15.8-5.2-30.1-16.9-30.1-41.7C1583.8,58.9,1599.4,28.9,1655.3,28.9
	L1655.3,28.9z M440.4,136c-9.8,38.8-42,64-82.2,64c-48.5,0-85.3-36.7-85.3-89.8c0-53,32.8-89.7,85.3-89.7
	c43.5,0,73.5,25.2,82.5,64.1l-55.5,0c-4.2-11.7-12.4-20.8-26.9-20.8c-24.5,0-31,26-30.9,46.4c0,20.5,6.4,46.4,30.9,46.4
	c14.5,0,22.6-9,26.9-20.7L440.4,136L440.4,136z M31.1,0H102l30.9,115.3L163.7,0h70.9l31,200h-58.5L191.7,83.1l-32,116.9h-53.8
	L74,83.1L58.5,200H0L31.1,0z M940.2,99.6v95.6h-58.7V24.7h58.7V38c14.8-11.6,28.2-17.5,58.7-17.5c33.1,0,59.7,22.1,59.7,45.3v129.4
	h-59.1v-93.9c0-15.6-13.9-28.3-29.1-28.3C950.9,73.1,941.1,90.3,940.2,99.6L940.2,99.6z M1463.5,41.6V0h59.3v195.2h-59.3v-9.5
	c-7.8,7-18,14.2-43.6,14.2c-28.8,0-74.5-16-74.5-84.6c0-68.6,45.7-86.4,78.2-86.4C1447.2,28.9,1458.4,37.1,1463.5,41.6L1463.5,41.6z
	 M1401.9,115.3c0,26.7,12.4,43.7,32.8,43.7c12.2,0,22.5-5.3,28.8-16.5V91.4c-3.2-11.3-14.1-19.6-28.8-19.7
	C1414.3,71.7,1401.9,88.6,1401.9,115.3L1401.9,115.3z M684.7,110.3c0-53,34.4-89.7,89.5-89.8c55.1-0.1,89.4,36.7,89.5,89.8
	c0.1,53.1-34.4,89.7-89.5,89.7C719.1,200,684.6,163.3,684.7,110.3z M808.1,110.3c0-20.5-7.1-46.4-34-46.4c-26.9,0-34,26-34,46.4
	c0,20.5,7.1,46.4,34,46.4C801,156.7,808.1,130.7,808.1,110.3z M461,0h101.9c63.8,0,107.2,39.6,107.2,100s-43.4,100-107.2,100H461
	L461,0L461,0z M528.5,152.7h30.8c20,0,44.3-12.2,44.3-52.7c0-40.5-24.3-52.7-44.3-52.7h-30.8V152.7z M1164.4,20.5
	c42.1,0,76.8,15.5,79.5,49.4v125.2h-59.4v-16.9c-14.4,12.4-28.8,21.6-54.7,21.6c-30.2,0-54.6-23.9-54.6-51.9s17.3-59.1,86.3-59.1
	c17.8,0,23-7,23-15.3c0-10.2-11.8-16-21.7-16c-9.9,0-21.1,4.1-21.1,14.8h-55.6C1086.2,47.3,1103,20.6,1164.4,20.5z M1161.1,116.6
	c-13.7,0-26.4,7.3-26.4,21.3c0,9.1,5.4,16.9,19.4,16.9c13.4,0,27.7-7.9,30.4-24.4v-15.6C1180,117.3,1169.8,116.6,1161.1,116.6
	L1161.1,116.6z"/>
</svg>
