<svg xmlns="http://www.w3.org/2000/svg" width="138.976" height="16" viewBox="0 0 138.976 16">
  <path id="mcdonalds-01" d="M101.424,0h4.744V15.616h-4.744Zm22.2,0h3.232l-1.1,4.256h-2.352L123.624,0Zm8.8,2.312c3.16,0,6.12.8,6.136,3.9h-4.512c0-1.072-.624-1.552-1.672-1.552-.624,0-1.464.256-1.464,1.24,0,1.624,2.568,1.3,4.744,1.944,1.96.584,3.32,1.752,3.32,3.632,0,2.888-2.272,4.488-6.552,4.5-4.5.016-6.184-1.6-6.2-4.5h4.568a1.594,1.594,0,0,0,1.64,1.752c1.152,0,1.672-.44,1.672-1.256,0-1.7-3.144-1.656-5-2.264A3.248,3.248,0,0,1,126.7,6.368c.008-1.656,1.256-4.056,5.728-4.056ZM35.232,10.88A6.611,6.611,0,0,1,28.656,16c-3.88,0-6.824-2.936-6.824-7.184S24.456,1.64,28.656,1.64a6.386,6.386,0,0,1,6.6,5.128h-4.44A2.215,2.215,0,0,0,28.664,5.1c-1.96,0-2.48,2.08-2.472,3.712s.512,3.712,2.472,3.712a2.215,2.215,0,0,0,2.152-1.656l4.416.008ZM2.488,0H8.16l2.472,9.224L13.1,0h5.672l2.48,16h-4.68L15.336,6.648,12.776,16h-4.3L5.92,6.648,4.68,16H0ZM75.216,7.968v7.648h-4.7V1.976h4.7V3.04a6.524,6.524,0,0,1,4.7-1.4c2.648,0,4.776,1.768,4.776,3.624V15.616H79.96V8.1A2.344,2.344,0,0,0,77.632,5.84a2.5,2.5,0,0,0-2.416,2.128Zm41.864-4.64V0h4.744V15.616H117.08v-.76a4.544,4.544,0,0,1-3.488,1.136c-2.3,0-5.96-1.28-5.96-6.768s3.656-6.912,6.256-6.912a4.5,4.5,0,0,1,3.192,1.016Zm-4.928,5.9c0,2.136.992,3.5,2.624,3.5a2.512,2.512,0,0,0,2.3-1.32V7.312a2.292,2.292,0,0,0-2.3-1.576c-1.632,0-2.624,1.352-2.624,3.488Zm-57.376-.4c0-4.24,2.752-7.176,7.16-7.184s7.152,2.936,7.16,7.184A6.74,6.74,0,0,1,61.936,16,6.744,6.744,0,0,1,54.776,8.824Zm9.872,0c0-1.64-.568-3.712-2.72-3.712s-2.72,2.08-2.72,3.712.568,3.712,2.72,3.712S64.648,10.456,64.648,8.824ZM36.88,0h8.152c5.1,0,8.576,3.168,8.576,8s-3.472,8-8.576,8H36.88V0Zm5.4,12.216h2.464c1.6,0,3.544-.976,3.544-4.216s-1.944-4.216-3.544-4.216H42.28ZM93.152,1.64c3.368,0,6.144,1.24,6.36,3.952V15.608H94.76V14.256a6.057,6.057,0,0,1-4.376,1.728,4.3,4.3,0,0,1-4.368-4.152c0-2.24,1.384-4.728,6.9-4.728,1.424,0,1.84-.56,1.84-1.224,0-.816-.944-1.28-1.736-1.28s-1.688.328-1.688,1.184H86.888C86.9,3.784,88.24,1.648,93.152,1.64Zm-.264,7.688c-1.1,0-2.112.584-2.112,1.7,0,.728.432,1.352,1.552,1.352a2.362,2.362,0,0,0,2.432-1.952V9.184a5.177,5.177,0,0,1-1.872.144Z" fill="#e50008" fill-rule="evenodd"/>
</svg>
