<svg xmlns="http://www.w3.org/2000/svg" width="192.105" height="36.641" viewBox="0 0 192.105 36.641">
  <g id="mercedes-benz" transform="translate(-55.671 -13.406)">
    <g id="Layer_1" data-name="Layer 1" transform="translate(55.671 13.406)">
      <g id="Group_1142" data-name="Group 1142" transform="translate(46.388 10.019)">
        <path id="Path_44025" data-name="Path 44025" d="M2.766,106.215v.186c0,1,.337,1.241,1.986,1.383v.461c-1.214-.1-1.773-.115-2.376-.115A21.248,21.248,0,0,0,0,108.245v-.461c1.649-.142,1.888-.337,1.986-1.569L2.6,93.991v-.23C2.6,92.741,2.234,92.5.6,92.378V91.89a15.457,15.457,0,0,0,1.729.1,15.221,15.221,0,0,0,2.1-.08l4.556,12.9,4.636-12.9a21.042,21.042,0,0,0,2.128.115,15.167,15.167,0,0,0,1.675-.1v.488c-1.6.124-1.986.363-1.986,1.356v.222l.266,12.224c0,1.188.319,1.427,1.986,1.569v.461a25.572,25.572,0,0,0-2.784-.2,25.565,25.565,0,0,0-2.792.2v-.479c1.534-.071,1.995-.39,1.995-1.365v-.23l-.222-12.907L8.749,107.7H8.413L3.351,93.282Z" transform="translate(0 -91.81)" fill="#231f20" fill-rule="evenodd"/>
        <path id="Path_44027" data-name="Path 44027" d="M34.083,97.44A15.275,15.275,0,0,0,37,96.89l.142,1.374.044,1a2.9,2.9,0,0,1,2.766-2.234A1.853,1.853,0,0,1,41.964,98.8c0,.7-.363,1.135-.94,1.135a.824.824,0,0,1-.886-.8,1.383,1.383,0,0,1,.071-.381.372.372,0,0,0,0-.168c0-.337-.31-.585-.771-.585-1.312,0-2.19,1.7-2.19,4.3v4.867c0,.975.293,1.17,1.773,1.241v.408a22.019,22.019,0,0,0-4.991,0v-.408c1.454-.071,1.773-.266,1.773-1.241V99.31c-.027-1.436-.027-1.436-1.72-1.525Z" transform="translate(-3.864 -92.378)" fill="#231f20" fill-rule="evenodd"/>
        <path id="Path_44028" data-name="Path 44028" d="M52.154,100.585h-.461a5.93,5.93,0,0,0-.576-1.649,2.659,2.659,0,0,0-2.207-1.312c-1.87,0-2.987,2.039-2.987,5.478s.975,5.124,2.916,5.124c1.5,0,2.349-1.019,2.659-3.227h.966c-.284,2.544-1.6,3.971-3.705,3.971-2.721,0-4.539-2.349-4.539-5.868s1.844-6.081,4.61-6.081a2.961,2.961,0,0,1,2.287.993l.6-1.214h.417v3.785Z" transform="translate(-5.02 -92.368)" fill="#231f20" fill-rule="evenodd"/>
        <path id="Path_44029" data-name="Path 44029" d="M64.646,104.982c-.239,2.518-1.773,4-4.078,4-3.076,0-4.778-2.083-4.778-5.868s1.773-6.081,4.583-6.081,4.273,1.959,4.246,5.6H57.3c0,3.8,1.064,5.6,3.3,5.6,1.773,0,2.81-1.117,3.085-3.253Zm-1.525-3.227c-.151-2.739-1.073-4.122-2.766-4.122s-2.659,1.454-2.987,4.122Z" transform="translate(-6.334 -92.394)" fill="#231f20" fill-rule="evenodd"/>
        <path id="Path_44030" data-name="Path 44030" d="M78.656,107.8a11.285,11.285,0,0,0-2.863.558,11.719,11.719,0,0,1-.266-2.11,3.2,3.2,0,0,1-3.076,2.11c-2.526,0-4.29-2.42-4.29-5.9s1.773-5.939,4.264-5.939c1.356,0,2.234.612,3.005,2.163V94c0-1.161-.168-1.3-1.72-1.3v-.337a22.454,22.454,0,0,0,3.174-.558v13.988c0,.993.071,1.285.39,1.48s.337.151,1.33.2v.337Zm-8.865-5.319c0,3.324,1.037,5.221,2.863,5.221s2.81-1.773,2.81-4.973c0-3.546-1.019-5.5-2.89-5.5S69.791,99,69.791,102.482Z" transform="translate(-7.738 -91.8)" fill="#231f20" fill-rule="evenodd"/>
        <path id="Path_44031" data-name="Path 44031" d="M90.607,104.982c-.239,2.518-1.773,4-4.069,4-3.085,0-4.778-2.083-4.778-5.868s1.773-6.081,4.583-6.081,4.264,1.959,4.246,5.6H83.258c0,3.8,1.073,5.6,3.3,5.6,1.773,0,2.819-1.117,3.085-3.253Zm-1.542-3.209C88.923,99.033,88,97.651,86.3,97.651s-2.659,1.454-2.979,4.122Z" transform="translate(-9.282 -92.394)" fill="#231f20" fill-rule="evenodd"/>
        <path id="Path_44032" data-name="Path 44032" d="M94.318,105.061h.452a5.762,5.762,0,0,0,.585,1.7,2.961,2.961,0,0,0,2.659,1.525,2.447,2.447,0,0,0,2.659-2.3c0-.824-.363-1.285-1.356-1.773-.248-.124-.248-.124-2.429-1.019-1.773-.753-2.349-1.409-2.349-2.89a3.209,3.209,0,0,1,3.493-3.174,4.2,4.2,0,0,1,2.376.709l.337-.886h.417v3.59H100.7c-.222-1.941-1.046-2.854-2.571-2.854a2.216,2.216,0,0,0-2.376,2.128c0,.807.363,1.285,1.356,1.773.363.168.532.266,2.349.993s2.473,1.48,2.473,2.908a3.546,3.546,0,0,1-3.8,3.448,4.9,4.9,0,0,1-2.89-.949l-.532.966H94.3v-3.892Z" transform="translate(-10.706 -92.385)" fill="#231f20" fill-rule="evenodd"/>
        <path id="Path_44033" data-name="Path 44033" d="M104.33,102.22v1.019h6.134V102.22Z" transform="translate(-11.845 -92.983)" fill="#231f20" fill-rule="evenodd"/>
        <path id="Path_44034" data-name="Path 44034" d="M118.291,92a4.725,4.725,0,0,1,3.28.886,3.909,3.909,0,0,1-1.241,6.64,3.869,3.869,0,0,1,3.351,3.98,4.76,4.76,0,0,1-1.773,3.688,5.638,5.638,0,0,1-3.759.94H112.21v-.461c1.773-.142,1.986-.337,1.986-1.6V94.044c0-1.232-.239-1.427-1.986-1.578V92Zm-.7,7.367c1.454,0,2.11-.2,2.713-.824a3.546,3.546,0,0,0,.886-2.571,3.714,3.714,0,0,0-.709-2.447,2.8,2.8,0,0,0-2.42-.886h-2.252v6.693Zm-1.773,6.79c0,1.144.239,1.339,1.64,1.339h.886c2.225,0,3.546-1.463,3.546-3.856a3.936,3.936,0,0,0-.94-2.766,3.377,3.377,0,0,0-2.659-.824h-2.544v6.134Z" transform="translate(-12.74 -91.819)" fill="#231f20" fill-rule="evenodd"/>
        <path id="Path_44035" data-name="Path 44035" d="M136.547,104.982c-.239,2.518-1.773,4-4.078,4-3.076,0-4.769-2.083-4.769-5.868s1.773-6.081,4.574-6.081,4.273,1.959,4.246,5.6H129.2c0,3.8,1.064,5.6,3.3,5.6,1.773,0,2.81-1.117,3.076-3.253Zm-1.489-3.209c-.151-2.739-1.073-4.122-2.766-4.122s-2.659,1.454-2.987,4.122Z" transform="translate(-14.498 -92.394)" fill="#231f20" fill-rule="evenodd"/>
        <path id="Path_44036" data-name="Path 44036" d="M139.76,97.527a12,12,0,0,0,2.872-.727,15.32,15.32,0,0,1,.168,2.163,3.6,3.6,0,0,1,3.182-1.87,3.431,3.431,0,0,1,2.961,1.578,4.9,4.9,0,0,1,.532,2.571v5.913c0,.975.284,1.17,1.773,1.241v.408a23.826,23.826,0,0,0-2.526-.142,23.4,23.4,0,0,0-2.5.142v-.408c1.48-.053,1.773-.266,1.773-1.241v-5.868a4.033,4.033,0,0,0-.434-2.278,2.136,2.136,0,0,0-1.87-.886,2.757,2.757,0,0,0-2.172,1.081,3.4,3.4,0,0,0-.514,2.181v5.771c0,.975.293,1.17,1.773,1.241v.408a22.1,22.1,0,0,0-5,0v-.408c1.463-.071,1.773-.266,1.773-1.241V99.3c0-.886,0-1.046-.2-1.214s-.355-.168-1.5-.213v-.346Z" transform="translate(-15.867 -92.368)" fill="#231f20" fill-rule="evenodd"/>
        <path id="Path_44037" data-name="Path 44037" d="M161.184,97.928h-3.129c-1.525,0-1.817.293-2.659,2.42h-.47l.532-2.979h7.783L156.4,108.256h3.28a2.074,2.074,0,0,0,2.207-1.117,5.549,5.549,0,0,0,.727-1.622h.408l-.576,3.3h-8.1Z" transform="translate(-17.523 -92.432)" fill="#231f20" fill-rule="evenodd"/>
        <path id="Path_44026" data-name="Path 44026" d="M30.867,104.982c-.239,2.518-1.773,4-4.069,4-3.085,0-4.778-2.083-4.778-5.868S23.793,97.03,26.6,97.03s4.264,1.977,4.264,5.62h-7.34c0,3.8,1.073,5.6,3.307,5.6,1.773,0,2.81-1.117,3.076-3.253Zm-1.525-3.227c-.142-2.739-1.064-4.122-2.766-4.122s-2.659,1.454-2.979,4.122Z" transform="translate(-2.5 -92.394)" fill="#231f20" fill-rule="evenodd"/>
      </g>
      <g id="Group_1143" data-name="Group 1143">
        <path id="Path_44038" data-name="Path 44038" d="M63.986,0A18.321,18.321,0,1,0,76.942,5.365,18.321,18.321,0,0,0,63.986,0Zm-11.8,30.122a16.691,16.691,0,1,1,11.806,4.889h0a16.6,16.6,0,0,1-11.806-4.889Z" transform="translate(-45.671 0)" fill="#231f20" fill-rule="evenodd"/>
        <path id="Path_44039" data-name="Path 44039" d="M80.671,11.189a17.993,17.993,0,0,0-18-10.733A18.364,18.364,0,0,0,48.447,9.638a15.518,15.518,0,0,0-1.332,3.121,18.527,18.527,0,0,0,4.268,18.256l.865.666a19.344,19.344,0,0,1-5.461-11.513A17.426,17.426,0,0,1,49.024,9.931a17.918,17.918,0,0,1,7.15-6.9,17.609,17.609,0,0,1,16.984.5A18.062,18.062,0,0,1,79.7,10.185a18.321,18.321,0,0,1,2.256,6.236,15.9,15.9,0,0,0-1.282-5.232Z" transform="translate(-45.958 -0.197)" fill="#fff" fill-rule="evenodd"/>
        <path id="Path_44040" data-name="Path 44040" d="M84.281,25.67a17.314,17.314,0,0,0-2.36-10.132,40.433,40.433,0,0,0-2.673-3.478A17.769,17.769,0,0,1,85.012,25.9,17.745,17.745,0,0,1,72.887,41.1,17.272,17.272,0,0,1,54.6,36.16a14.907,14.907,0,0,1-2.092-2.877c-.239-.338,0-.576.219-.323a17.019,17.019,0,0,0,29.088.373c.447.06.571-.248.323-.537a15.136,15.136,0,0,0,2.142-7.1Z" transform="translate(-49.061 -6.067)" fill="#fff" fill-rule="evenodd"/>
        <path id="Path_44041" data-name="Path 44041" d="M49.745,45.361A17.475,17.475,0,0,1,48.07,38.24a20.05,20.05,0,0,0,2.142,7.26C50.386,45.823,50.077,46.1,49.745,45.361Z" transform="translate(-46.878 -19.238)" fill="#fff" fill-rule="evenodd"/>
        <path id="Path_44042" data-name="Path 44042" d="M67.365,22.477,81.3,28.087c.224.1.681.363.84.119s.129-.253-.243-.586l-.06.07L70.157,17.781l-2.4-15.4c-.08-.318-.119-.447-.383-.447s-.258.313-.3.432L64.6,17.577,52.86,26.929c-.179.139-.5.209-.79-.293l.348.86.611.8a1.491,1.491,0,0,1-.144-.437l.075-.214L67.37,22.5Z" transform="translate(-48.89 -0.971)" fill="#231f20" fill-rule="evenodd"/>
        <path id="Path_44043" data-name="Path 44043" d="M82.095,27.918,68.256,19.66v2.981l-.273-.1-.3.084V19.541L53.24,27.421l12.621-9.113-.815-.542.154-.139.04-.224v-.065l.765.5L67.68,2.5c0-.283.124-.5.308-.5s.293.348.293.542l.134,16.308,2.276-1.342.055.313.214.184-.77.5s11.692,8.84,12.065,9.1S82.254,28.052,82.095,27.918ZM67.422,19.357l-.721-.5-3.354,2.554,4.075-2.077Zm1.873-.363-.6.363,13.242,8.288Zm-2.534-.651.894.581L68.028,2.3Z" transform="translate(-49.479 -1.006)" fill="#fff" fill-rule="evenodd"/>
      </g>
    </g>
  </g>
</svg>
