<svg version="1.1" id="Capa_1" xmlns="http://www.w3.org/2000/svg" x="0" y="0" viewBox="0 0 30 30" xml:space="preserve"><style>.st0{fill:#739ee9;stroke:#739ee9;stroke-width:.25;stroke-miterlimit:10}</style><path class="st0" d="M5.8 21.8c-1.7 0-3.1 1.4-3.1 3.1S4.1 28 5.8 28s3.1-1.4 3.1-3.1-1.4-3.1-3.1-3.1zm0 4.9c-1 0-1.8-.8-1.8-1.8s.8-1.8 1.8-1.8 1.8.8 1.8 1.8-.8 1.8-1.8 1.8zM24.2 21.8c-1.7 0-3.1 1.4-3.1 3.1s1.4 3.1 3.1 3.1 3.1-1.4 3.1-3.1-1.4-3.1-3.1-3.1zm0 4.9c-1 0-1.8-.8-1.8-1.8s.8-1.8 1.8-1.8 1.8.8 1.8 1.8-.8 1.8-1.8 1.8z"/><path class="st0" d="M26 18.2h-1c-.4 0-.8-.1-1-.4l-4.8-3.9c-.5-.4-1.2-.7-1.9-.7h-9c-1 0-2 .5-2.6 1.4l-1 1.6c-.3.5-.8.7-1.4.7C1.6 16.9.2 18.3.2 20v2.5c0 1.7 1.4 3.1 3.1 3.1.3 0 .6-.3.6-.6s-.3-.6-.6-.6c-1 0-1.8-.8-1.8-1.8V20c0-1 .8-1.8 1.8-1.8s1.9-.5 2.4-1.3l1-1.6c.3-.5.9-.8 1.5-.8h8.9c.4 0 .8.1 1.2.4l4.8 3.9c.5.4 1.2.6 1.8.6h1c1.8 0 2.5 1.8 2.5 3.1 0 1.2-.9 1.8-1.8 1.8-.3 0-.6.3-.6.6s.3.6.6.6c1.7 0 3.1-1.3 3.1-3.1 0-2-1.3-4.2-3.7-4.2z"/><path class="st0" d="M21.7 24.3H8.3c-.3 0-.6.3-.6.6s.3.6.6.6h13.5c.3 0 .6-.3.6-.6s-.3-.6-.7-.6zM20.5 18.2H15v-1.8c0-.3-.3-.6-.6-.6s-.6.3-.6.6v2.5c0 .3.3.6.6.6h6.1c.3 0 .6-.3.6-.6s-.2-.7-.6-.7zM11.9 18.2H8l.8-1.6c.2-.3 0-.7-.3-.8-.3-.2-.7 0-.8.3l-1.2 2.5c-.1.2-.1.4 0 .6s.3.3.5.3h4.9c.3 0 .6-.3.6-.6 0-.5-.2-.7-.6-.7zM16.8 20.6h-1.2c-.3 0-.6.3-.6.6s.3.6.6.6h1.2c.3 0 .6-.3.6-.6.1-.3-.2-.6-.6-.6z"/><g><path class="st0" d="M14.4 12.3c.2.2.4.3.6.3s.5-.1.6-.3c0 0 .9-1 1.7-2.2 1.2-1.7 1.9-2.9 1.9-3.9C19.1 3.9 17.3 2 15 2s-4.1 1.9-4.1 4.1c0 1 .6 2.3 1.9 3.9.7 1.3 1.6 2.2 1.6 2.3zm.6-8.7c1.4 0 2.5 1.1 2.5 2.5 0 .9-1.3 2.8-2.5 4.2-1.2-1.5-2.5-3.3-2.5-4.2 0-1.3 1.1-2.5 2.5-2.5z"/><circle class="st0" cx="15" cy="6.2" r=".8"/></g></svg>