<svg xmlns="http://www.w3.org/2000/svg" width="160" height="43.452" viewBox="0 0 160 43.452">
  <g id="phonepe-1" transform="translate(-0.07 -0.07)">
    <path id="Path_43983" data-name="Path 43983" d="M891.388,237.07V229.18c0-1.942-.728-2.913-2.549-2.913a9.656,9.656,0,0,0-2.063.243v11.53a.783.783,0,0,1-.728.728h-2.792a.783.783,0,0,1-.728-.728V224.568a1.057,1.057,0,0,1,.728-.971,17.422,17.422,0,0,1,5.583-.971c4.369,0,6.8,2.306,6.8,6.554v8.981a.783.783,0,0,1-.728.728h-1.7A1.788,1.788,0,0,1,891.388,237.07Zm10.924-4.734-.122,1.093a2.24,2.24,0,0,0,2.549,2.306,7.7,7.7,0,0,0,3.52-.971c.122,0,.243-.122.364-.122a.633.633,0,0,1,.486.243,4.829,4.829,0,0,1,.364.486,2.564,2.564,0,0,1,.486,1.213,1.685,1.685,0,0,1-.849,1.457,9.587,9.587,0,0,1-4.612,1.093,7.346,7.346,0,0,1-4.734-1.457,5.685,5.685,0,0,1-1.942-4.369v-4.734c0-3.763,2.428-6.069,6.554-6.069,4.005,0,6.311,2.185,6.311,6.069v2.913a.783.783,0,0,1-.728.728h-7.646Zm-.122-2.67H906.8v-1.213a2.2,2.2,0,0,0-2.306-2.428,2.144,2.144,0,0,0-2.306,2.428Zm30.95,2.67-.122,1.093a2.24,2.24,0,0,0,2.549,2.306,7.7,7.7,0,0,0,3.52-.971c.122,0,.242-.122.364-.122a.633.633,0,0,1,.486.243,4.829,4.829,0,0,1,.364.486,2.564,2.564,0,0,1,.486,1.213,1.685,1.685,0,0,1-.849,1.457,9.587,9.587,0,0,1-4.612,1.093,7.346,7.346,0,0,1-4.734-1.457,5.685,5.685,0,0,1-1.942-4.369v-4.734c0-3.763,2.427-6.069,6.554-6.069,4.005,0,6.311,2.185,6.311,6.069v2.913a.783.783,0,0,1-.728.728h-7.646v.122Zm-.122-2.67h4.612v-1.213a2.2,2.2,0,0,0-2.306-2.428,2.144,2.144,0,0,0-2.306,2.428Zm-71.367,9.224h1.7a.783.783,0,0,0,.728-.728V229.18c0-4.127-2.185-6.554-5.826-6.554a10.564,10.564,0,0,0-3.034.486v-4.491A1.867,1.867,0,0,0,853.4,216.8h-1.7a.783.783,0,0,0-.728.728v20.633a.783.783,0,0,0,.728.728h2.792a.783.783,0,0,0,.728-.728V226.753a6.169,6.169,0,0,1,2.063-.364c1.821,0,2.549.849,2.549,2.913v7.889A1.947,1.947,0,0,0,861.652,238.89Zm18.327-10.2v4.491c0,3.763-2.549,6.069-6.8,6.069-4.127,0-6.8-2.306-6.8-6.069v-4.491c0-3.763,2.549-6.069,6.8-6.069S879.979,224.933,879.979,228.695Zm-4.248,0a2.233,2.233,0,0,0-2.428-2.428,2.179,2.179,0,0,0-2.428,2.428v4.491a2.431,2.431,0,0,0,4.855,0Zm-27.066-2.063a6.441,6.441,0,0,1-6.8,6.554,6.53,6.53,0,0,1-2.67-.486v5.462a.783.783,0,0,1-.728.728h-2.792a.783.783,0,0,1-.728-.728v-19.3a1.057,1.057,0,0,1,.728-.971,17.422,17.422,0,0,1,5.583-.971c4.369,0,7.4,2.67,7.4,6.8C848.665,223.719,848.665,226.632,848.665,226.632Zm-4.369-3.156c0-1.942-1.335-2.913-3.156-2.913a4.418,4.418,0,0,0-1.821.364v8.01a3.562,3.562,0,0,0,1.942.486,2.872,2.872,0,0,0,3.156-2.913v-3.034H844.3Zm82.776,3.156a6.441,6.441,0,0,1-6.8,6.554,6.529,6.529,0,0,1-2.67-.486v5.462a.783.783,0,0,1-.728.728h-2.792a.783.783,0,0,1-.728-.728v-19.3a1.057,1.057,0,0,1,.728-.971,17.422,17.422,0,0,1,5.583-.971c4.369,0,7.4,2.67,7.4,6.8C927.072,223.719,927.072,226.632,927.072,226.632Zm-4.369-3.156c0-1.942-1.335-2.913-3.156-2.913a4.419,4.419,0,0,0-1.821.364v8.01a3.562,3.562,0,0,0,1.942.486,2.872,2.872,0,0,0,3.156-2.913v-3.034H922.7Z" transform="translate(-781.447 -202.859)" fill="#5f259f"/>
    <circle id="Ellipse_47" data-name="Ellipse 47" cx="21.726" cy="21.726" r="21.726" transform="translate(0.07 0.07)" fill="#5f259f"/>
    <path id="Path_43984" data-name="Path 43984" d="M191.843,104.062a1.607,1.607,0,0,0-1.578-1.578h-2.913l-6.675-7.646a2.458,2.458,0,0,0-2.549-.728l-2.306.728a.537.537,0,0,0-.243.849l7.282,6.919H171.817a.573.573,0,0,0-.607.607v1.213A1.607,1.607,0,0,0,172.788,106h1.7v5.826c0,4.369,2.306,6.919,6.19,6.919a8.4,8.4,0,0,0,3.4-.607v3.884a1.917,1.917,0,0,0,1.942,1.942h1.7a.783.783,0,0,0,.728-.728V105.883h2.792a.573.573,0,0,0,.607-.607ZM184.076,114.5a5.786,5.786,0,0,1-2.428.486c-1.942,0-2.913-.971-2.913-3.156V106h5.34Z" transform="translate(-160.187 -87.936)" fill="#fff"/>
  </g>
</svg>
