<svg version="1.1" id="Capa_1" xmlns="http://www.w3.org/2000/svg" x="0" y="0" viewBox="0 0 30 30" xml:space="preserve"><style>.st0{fill:#739ee9;stroke:#739ee9;stroke-width:.25;stroke-miterlimit:10}</style><path class="st0" d="M24.5 11.1c.2.2.4.3.6.3s.5-.1.6-.3c0 0 .9-1 1.7-2.2 1.2-1.7 1.9-3 1.9-4 0-2.3-1.9-4.2-4.2-4.2s-4.2 1.9-4.2 4.2c0 1 .6 2.3 1.9 4 .8 1.2 1.7 2.1 1.7 2.2zm.6-8.8c1.4 0 2.5 1.1 2.5 2.5 0 .9-1.3 2.9-2.5 4.3-1.2-1.5-2.5-3.4-2.5-4.3 0-1.3 1.1-2.5 2.5-2.5zM23.2 14.8h-2.3v-4.2c0-.5-.4-.8-.8-.8H9.9c-.5 0-.9.3-.9.8v4.2H6.7c-2.5 0-4.5-2-4.5-4.5s2-4.5 4.5-4.5h9.6l-.8.8c-.3.3-.3.9 0 1.2.3.3.9.3 1.2 0L19 5.5c.3-.3.3-.9 0-1.2L16.7 2c-.3-.3-.9-.3-1.2 0s-.3.9 0 1.2l.8.8H6.7C3.3 4 .5 6.8.5 10.2s2.8 6.2 6.2 6.2H9v4.2c0 .5.4.8.8.8H20c.5 0 .8-.4.8-.8v-4.2h2.3c2.5 0 4.5 2 4.5 4.5s-2 4.5-4.5 4.5H6.6c-.4-1.3-1.6-2.3-3-2.3-1.7 0-3.1 1.4-3.1 3.1s1.4 3.1 3.1 3.1c1.4 0 2.6-1 3-2.3h16.6c3.4 0 6.2-2.8 6.2-6.2s-2.8-6-6.2-6zm-9.1-3.3h1.7v1.4l-.6-.2c-.2-.1-.4-.1-.5 0l-.6.2v-1.4zm5.1 8.4h-8.5v-8.5h1.7V14c0 .6.6 1 1.1.8l1.4-.5 1.4.5c.5.2 1.1-.2 1.1-.8v-2.5h1.7l.1 8.4zM3.6 27.8c-.8 0-1.4-.6-1.4-1.4S2.8 25 3.6 25s1.4.6 1.4 1.4-.6 1.4-1.4 1.4z"/><circle class="st0" cx="25.1" cy="4.9" r=".8"/></svg>