<svg xmlns="http://www.w3.org/2000/svg" viewBox="0 0 30 30"><path d="M28.6 16.1c-1.9-1.9-5-1.9-6.9 0-1.6 1.6-1.9 4-.7 5.9l3.1 5.3H6.2c-1.5 0-2.8-1.3-2.8-2.8s1.3-2.8 2.8-2.8h8.4c2.5 0 4.6-2 4.6-4.6s-2-4.6-4.6-4.6H5.9L9 7.2c1.2-1.8.9-4.2-.7-5.8-1.9-1.9-5-1.9-6.9 0C-.2 3-.5 5.4.7 7.3l4.2 7.1h9.7c1.5 0 2.8 1.3 2.8 2.8S16.1 20 14.6 20H6.2c-2.5 0-4.6 2-4.6 4.6s2 4.6 4.6 4.6h18.9l4.2-7.1c1.2-2 .8-4.4-.7-6zM4.9 6.4c-.9 0-1.6-.7-1.6-1.5S4 3.3 4.9 3.3s1.5.7 1.5 1.6-.7 1.5-1.5 1.5zm20.2 14.7c-.8 0-1.5-.7-1.5-1.5s.7-1.5 1.5-1.5 1.5.7 1.5 1.5-.7 1.5-1.5 1.5z" fill="#4dbeda"/></svg>