<svg xmlns="http://www.w3.org/2000/svg" width="123.427" height="22.61" viewBox="0 0 123.427 22.61">
  <g id="tvs-motor-logo" transform="translate(-29.4 -18.081)">
    <path id="Path_43960" data-name="Path 43960" d="M33.8,40.73H31.372l-.945,3.492H42.178l.9-3.492H40.247L43.082,29.1h1.931l-.164,1.931h4.068l1.644-6.122H31l-1.6,6.122h4.232l.863-1.972h2.1ZM64.448,24.912h9.08L61.407,44.223h-7.6L52.738,28.4H51.176l.9-3.492H62.147l-.9,3.492H59.517l-.041,9.9,5.793-9.9H63.338Zm23.3,5.711a13.268,13.268,0,0,1,1.4-5.424,25.015,25.015,0,0,0-10.477,0,8.484,8.484,0,0,0-4.931,3.369,4.775,4.775,0,0,0,.575,5.917,9.082,9.082,0,0,0,2.712,1.767c.781.37,2.137.945,2.342,1.849.575,2.3-3.123,2.506-4.561,2.054V38.347H70.94L69.46,43.73a22.945,22.945,0,0,0,10.56.37A9.794,9.794,0,0,0,85.4,40.854c1.15-1.438,1.808-4.109.575-5.67a8.283,8.283,0,0,0-2.424-2.054,28.548,28.548,0,0,1-2.712-1.479,1.439,1.439,0,0,1,.082-2.547c.822-.534,2.178-.288,3.082-.123l.164,1.6h3.575Z" transform="translate(0 -3.864)" fill="#253c80"/>
    <g id="Group_1126" data-name="Group 1126" transform="translate(93.332 18.081)">
      <path id="Path_43961" data-name="Path 43961" d="M239.72,21.006a7.568,7.568,0,0,0-4.766-.164,10.945,10.945,0,0,0-4.027,2.3,20.538,20.538,0,0,1-4.109,2.63c-1.52.657-3.246,1.356-4.889.7a5.627,5.627,0,0,0,3.328-.863,6.086,6.086,0,0,0,2.424-2.465h-1.356A9.126,9.126,0,0,1,229.9,20.76l-.657-.781a11,11,0,0,1,5.958-1.89,9.115,9.115,0,0,1,3,.37,5.579,5.579,0,0,1,2.547,1.52ZM213.712,25.32a5.637,5.637,0,0,0-1.643.205c-.534.164-1.027.37-1.561.575-.986.411-1.931.945-2.876,1.438a5.48,5.48,0,0,1-1.356.534,3.024,3.024,0,0,1-1.6-.123,5.594,5.594,0,0,1-1.315-.863,13.6,13.6,0,0,0-1.233-1.027c-.452-.288-.9-.493-1.356-.781.205,0,1.274-.041.986-.493a1.979,1.979,0,0,0-1.274-.616,15.549,15.549,0,0,0-3.082-.205,4.342,4.342,0,0,1,2.958-1.109,5.534,5.534,0,0,1,2.835,1.027c.452.288.986.781,1.438,1.068a6.327,6.327,0,0,0,1.438.616,4.958,4.958,0,0,0,3.082-.164,6.593,6.593,0,0,1,2.342-.616,3.108,3.108,0,0,1,2.219.534Z" transform="translate(-192.305 -18.081)" fill="#dc4226"/>
      <path id="Path_43962" data-name="Path 43962" d="M198.353,36.889c1.685-.082,3.082-1.726,4.027-2.958,1.027-1.315,1.726-3.287,3.328-4.027,2.383-1.068,4.889-.164,7.067.986a8.784,8.784,0,0,0,6.985-.041c2.26-.986,3.986-2.671,5.917-4.109a7.874,7.874,0,0,1,6.944-1.561l1.233-1.479.247,2.424,4.355,4.4-.863,1.027H234.8v-.7a3.845,3.845,0,0,0-2.712-.863c-1.068.123-2.219.616-2.054,1.89.123.863,1.356,1.644,1.972,2.1.863.575,1.767,1.109,2.671,1.685a59.786,59.786,0,0,1,5.341,3.78,25.547,25.547,0,0,1,4.479,4.191l-3.78-.74c.7-.493-.123-1.027-.575-1.4a13.75,13.75,0,0,0-1.808-1.192,15.608,15.608,0,0,0-4.027-1.4c-2.671-.657-6.122-1.068-8.464.616-.082.041-.164.123-.246.164l-1.315-1.109a16.137,16.137,0,0,1-12.86-1.068,11.04,11.04,0,0,1-5.3,1.561,26.637,26.637,0,0,1-5.424-.082c-4.314,3.575-10.19,5.67-15.7,3.78l3.7-.945v.822c3.985,0,7.314-2.794,9.656-5.752Z" transform="translate(-185 -21.391)" fill="#dc4226"/>
    </g>
  </g>
</svg>
