<svg id="uber-2" xmlns="http://www.w3.org/2000/svg" width="76.482" height="26.551" viewBox="0 0 76.482 26.551">
  <path id="Path_43985" data-name="Path 43985" d="M4.4,18.962a6.539,6.539,0,0,0,1.342,2.2,5.777,5.777,0,0,0,2.032,1.4,6.631,6.631,0,0,0,2.554.485,6.321,6.321,0,0,0,2.517-.5A6.192,6.192,0,0,0,14.9,21.125a6.425,6.425,0,0,0,1.361-2.181,7.882,7.882,0,0,0,.485-2.834V0h3.916V26.1H16.781V23.68A8.99,8.99,0,0,1,13.7,25.805a9.75,9.75,0,0,1-3.822.746,10.349,10.349,0,0,1-3.9-.727,9.124,9.124,0,0,1-3.132-2.07A9.763,9.763,0,0,1,.764,20.529,11.059,11.059,0,0,1,0,16.333V0H3.916V16.11A8.034,8.034,0,0,0,4.4,18.962ZM27.408,0V9.509a9.974,9.974,0,0,1,3.021-2.07,9.055,9.055,0,0,1,3.729-.764,9.834,9.834,0,0,1,3.916.783,9.865,9.865,0,0,1,5.3,5.3,9.742,9.742,0,0,1,.783,3.878,9.608,9.608,0,0,1-.783,3.859,9.913,9.913,0,0,1-5.3,5.277,9.834,9.834,0,0,1-3.916.783,9.185,9.185,0,0,1-3.748-.764,9.906,9.906,0,0,1-3.039-2.07V26.1H23.642V0Zm.429,19.2a6.488,6.488,0,0,0,1.4,2.088,6.748,6.748,0,0,0,2.088,1.417,6.349,6.349,0,0,0,2.573.522,6.257,6.257,0,0,0,2.536-.522,6.523,6.523,0,0,0,2.07-1.417A6.916,6.916,0,0,0,39.9,19.2a6.348,6.348,0,0,0,.522-2.573A6.481,6.481,0,0,0,39.9,14.04a6.854,6.854,0,0,0-1.4-2.107,6.278,6.278,0,0,0-2.07-1.4,6.556,6.556,0,0,0-7.16,1.4,6.689,6.689,0,0,0-1.417,2.107,6.481,6.481,0,0,0-.522,2.592,6.55,6.55,0,0,0,.5,2.573Zm18.44-6.414A10.145,10.145,0,0,1,48.328,9.64,9.866,9.866,0,0,1,59.105,7.458a9.022,9.022,0,0,1,3.021,2.07A9.46,9.46,0,0,1,64.1,12.66a10.692,10.692,0,0,1,.709,3.934v1.231H49.335a6.377,6.377,0,0,0,.746,2.144,6.464,6.464,0,0,0,1.4,1.715,6.391,6.391,0,0,0,1.9,1.137,6.211,6.211,0,0,0,2.256.41,6.524,6.524,0,0,0,5.482-2.8l2.722,2.014a9.934,9.934,0,0,1-8.2,4.065,10.5,10.5,0,0,1-3.971-.746,9.671,9.671,0,0,1-3.207-2.088,9.907,9.907,0,0,1-2.144-3.151,10.174,10.174,0,0,1-.037-7.738Zm5.239-1.473a6.356,6.356,0,0,0-2.107,3.524h11.6a6.169,6.169,0,0,0-2.07-3.524,5.862,5.862,0,0,0-7.421,0Zm20.342.429a5.049,5.049,0,0,0-1.193,3.543V26.1H66.9V7.085h3.729V9.435a5.3,5.3,0,0,1,1.846-1.827,5.224,5.224,0,0,1,2.7-.671h1.305v3.505H74.916a3.958,3.958,0,0,0-3.058,1.305Z" fill="#010202"/>
</svg>
